<svg xmlns="http://www.w3.org/2000/svg" xmlns:xlink="http://www.w3.org/1999/xlink" version="1.1" class="marks" width="610" height="790" viewBox="0 0 610 790"><rect width="610" height="790" fill="white"/><g fill="none" stroke-miterlimit="10" transform="translate(37,234)"><g class="mark-group role-frame root" role="graphics-object" aria-roledescription="group mark container"><g transform="translate(0,0)"><path class="background" aria-hidden="true" d="M0,0h500v500h-500Z" stroke="#ddd" stroke-width="0"/><g><g class="mark-group role-axis" aria-hidden="true"><g transform="translate(0.5,0.5)"><path class="background" aria-hidden="true" d="M0,0h0v0h0Z" pointer-events="none"/><g><g class="mark-rule role-axis-grid" pointer-events="none"><line transform="translate(0,500)" x2="500" y2="0" stroke="#444" stroke-opacity="0.3" stroke-width="1" opacity="1"/><line transform="translate(0,227)" x2="500" y2="0" stroke="#444" stroke-opacity="0.3" stroke-width="1" opacity="1"/></g></g><path class="foreground" aria-hidden="true" d="" pointer-events="none" display="none"/></g></g><g class="mark-group role-axis" role="graphics-symbol" aria-roledescription="axis" aria-label="X-axis for a time scale with values from March 2020 to December 2021"><g transform="translate(0.5,500.5)"><path class="background" aria-hidden="true" d="M0,0h0v0h0Z" pointer-events="none"/><g><g class="mark-rule role-axis-tick" pointer-events="none"><line transform="translate(20,0)" x2="0" y2="5" stroke="#888" stroke-width="1" opacity="1"/><line transform="translate(43,0)" x2="0" y2="5" stroke="#888" stroke-width="1" opacity="1"/><line transform="translate(66,0)" x2="0" y2="5" stroke="#888" stroke-width="1" opacity="1"/><line transform="translate(89,0)" x2="0" y2="5" stroke="#888" stroke-width="1" opacity="1"/><line transform="translate(112,0)" x2="0" y2="5" stroke="#888" stroke-width="1" opacity="1"/><line transform="translate(135,0)" x2="0" y2="5" stroke="#888" stroke-width="1" opacity="1"/><line transform="translate(158,0)" x2="0" y2="5" stroke="#888" stroke-width="1" opacity="1"/><line transform="translate(181,0)" x2="0" y2="5" stroke="#888" stroke-width="1" opacity="1"/><line transform="translate(203,0)" x2="0" y2="5" stroke="#888" stroke-width="1" opacity="1"/><line transform="translate(227,0)" x2="0" y2="5" stroke="#888" stroke-width="1" opacity="1"/><line transform="translate(250,0)" x2="0" y2="5" stroke="#888" stroke-width="1" opacity="1"/><line transform="translate(271,0)" x2="0" y2="5" stroke="#888" stroke-width="1" opacity="1"/><line transform="translate(294,0)" x2="0" y2="5" stroke="#888" stroke-width="1" opacity="1"/><line transform="translate(317,0)" x2="0" y2="5" stroke="#888" stroke-width="1" opacity="1"/><line transform="translate(340,0)" x2="0" y2="5" stroke="#888" stroke-width="1" opacity="1"/><line transform="translate(363,0)" x2="0" y2="5" stroke="#888" stroke-width="1" opacity="1"/><line transform="translate(386,0)" x2="0" y2="5" stroke="#888" stroke-width="1" opacity="1"/><line transform="translate(409,0)" x2="0" y2="5" stroke="#888" stroke-width="1" opacity="1"/><line transform="translate(432,0)" x2="0" y2="5" stroke="#888" stroke-width="1" opacity="1"/><line transform="translate(455,0)" x2="0" y2="5" stroke="#888" stroke-width="1" opacity="1"/><line transform="translate(477,0)" x2="0" y2="5" stroke="#888" stroke-width="1" opacity="1"/></g><g class="mark-text role-axis-label" pointer-events="none"><text text-anchor="end" transform="translate(20.238988988988986,7) rotate(-90) translate(0,3)" font-family="sans-serif" font-size="10px" fill="#000" opacity="1">Apr 2020</text><text text-anchor="end" transform="translate(42.76151151151151,7) rotate(-90) translate(0,3)" font-family="sans-serif" font-size="10px" fill="#000" opacity="1">May 2020</text><text text-anchor="end" transform="translate(66.03478478478478,7) rotate(-90) translate(0,3)" font-family="sans-serif" font-size="10px" fill="#000" opacity="1">Jun 2020</text><text text-anchor="end" transform="translate(88.55730730730731,7) rotate(-90) translate(0,3)" font-family="sans-serif" font-size="10px" fill="#000" opacity="1">Jul 2020</text><text text-anchor="end" transform="translate(111.83058058058059,7) rotate(-90) translate(0,3)" font-family="sans-serif" font-size="10px" fill="#000" opacity="1">Aug 2020</text><text text-anchor="end" transform="translate(135.10385385385385,7) rotate(-90) translate(0,3)" font-family="sans-serif" font-size="10px" fill="#000" opacity="1">Sep 2020</text><text text-anchor="end" transform="translate(157.62637637637638,7) rotate(-90) translate(0,3)" font-family="sans-serif" font-size="10px" fill="#000" opacity="1">Oct 2020</text><text text-anchor="end" transform="translate(180.89964964964966,7) rotate(-90) translate(0,3)" font-family="sans-serif" font-size="10px" fill="#000" opacity="1">Nov 2020</text><text text-anchor="end" transform="translate(203.45345345345345,7) rotate(-90) translate(0,3)" font-family="sans-serif" font-size="10px" fill="#000" opacity="1">Dec 2020</text><text text-anchor="end" transform="translate(226.72672672672672,7) rotate(-90) translate(0,3)" font-family="sans-serif" font-size="10px" fill="#000" opacity="1">Jan 2021</text><text text-anchor="end" transform="translate(250,7) rotate(-90) translate(0,3)" font-family="sans-serif" font-size="10px" fill="#000" opacity="1">Feb 2021</text><text text-anchor="end" transform="translate(271.02102102102106,7) rotate(-90) translate(0,3)" font-family="sans-serif" font-size="10px" fill="#000" opacity="1">Mar 2021</text><text text-anchor="end" transform="translate(294.263013013013,7) rotate(-90) translate(0,3)" font-family="sans-serif" font-size="10px" fill="#000" opacity="1">Apr 2021</text><text text-anchor="end" transform="translate(316.78553553553553,7) rotate(-90) translate(0,3)" font-family="sans-serif" font-size="10px" fill="#000" opacity="1">May 2021</text><text text-anchor="end" transform="translate(340.0588088088088,7) rotate(-90) translate(0,3)" font-family="sans-serif" font-size="10px" fill="#000" opacity="1">Jun 2021</text><text text-anchor="end" transform="translate(362.58133133133134,7) rotate(-90) translate(0,3)" font-family="sans-serif" font-size="10px" fill="#000" opacity="1">Jul 2021</text><text text-anchor="end" transform="translate(385.85460460460456,7) rotate(-90) translate(0,3)" font-family="sans-serif" font-size="10px" fill="#000" opacity="1">Aug 2021</text><text text-anchor="end" transform="translate(409.12787787787784,7) rotate(-90) translate(0,3)" font-family="sans-serif" font-size="10px" fill="#000" opacity="1">Sep 2021</text><text text-anchor="end" transform="translate(431.65040040040043,7) rotate(-90) translate(0,3)" font-family="sans-serif" font-size="10px" fill="#000" opacity="1">Oct 2021</text><text text-anchor="end" transform="translate(454.9236736736737,7) rotate(-90) translate(0,3)" font-family="sans-serif" font-size="10px" fill="#000" opacity="1">Nov 2021</text><text text-anchor="end" transform="translate(477.47747747747746,7) rotate(-90) translate(0,3)" font-family="sans-serif" font-size="10px" fill="#000" opacity="1">Dec 2021</text></g><g class="mark-rule role-axis-domain" pointer-events="none"><line transform="translate(0,0)" x2="500" y2="0" stroke="#888" stroke-width="1" opacity="1"/></g></g><path class="foreground" aria-hidden="true" d="" pointer-events="none" display="none"/></g></g><g class="mark-group role-axis" role="graphics-symbol" aria-roledescription="axis" aria-label="Y-axis titled 'Deaths per 100k, weekly avg (Middlesex, MA)' for a linear scale with values from 0 to 5"><g transform="translate(0.5,0.5)"><path class="background" aria-hidden="true" d="M0,0h0v0h0Z" pointer-events="none"/><g><g class="mark-rule role-axis-tick" pointer-events="none"><line transform="translate(0,500)" x2="-5" y2="0" stroke="#444" stroke-width="1" opacity="1"/><line transform="translate(0,227)" x2="-5" y2="0" stroke="#444" stroke-width="1" opacity="1"/></g><g class="mark-text role-axis-label" pointer-events="none"><text text-anchor="end" transform="translate(-7,503)" font-family="sans-serif" font-size="10px" fill="#444" opacity="1">0</text><text text-anchor="end" transform="translate(-7,229.99999999999997)" font-family="sans-serif" font-size="10px" fill="#444" opacity="1">3</text></g><g class="mark-text role-axis-title" pointer-events="none"><text text-anchor="middle" transform="translate(-16.5615234375,250) rotate(-90) translate(0,-3)" font-family="sans-serif" font-size="15px" font-weight="normal" fill="#444" opacity="1">Deaths per 100k, weekly avg (Middlesex, MA)</text></g></g><path class="foreground" aria-hidden="true" d="" pointer-events="none" display="none"/></g></g><g class="mark-group role-axis" role="graphics-symbol" aria-roledescription="axis" aria-label="Y-axis titled 'Cases per 100k, weekly avg (Middlesex, MA)' for a linear scale with values from 0 to 500"><g transform="translate(500.5,0.5)"><path class="background" aria-hidden="true" d="M0,0h0v0h0Z" pointer-events="none"/><g><g class="mark-rule role-axis-tick" pointer-events="none"><line transform="translate(0,500)" x2="5" y2="0" stroke="#d95f02" stroke-width="1" opacity="1"/><line transform="translate(0,351)" x2="5" y2="0" stroke="#d95f02" stroke-width="1" opacity="1"/></g><g class="mark-text role-axis-label" pointer-events="none"><text text-anchor="start" transform="translate(7,503)" font-family="sans-serif" font-size="10px" fill="#d95f02" opacity="1">0</text><text text-anchor="start" transform="translate(7,354.24)" font-family="sans-serif" font-size="10px" fill="#d95f02" opacity="1">149</text></g><g class="mark-text role-axis-title" pointer-events="none"><text text-anchor="start" transform="translate(27.6845703125,250) rotate(90) translate(0,-3)" font-family="sans-serif" font-size="15px" font-weight="normal" fill="#d95f02" opacity="1">Cases per 100k, weekly avg (Middlesex, MA)</text></g></g><path class="foreground" aria-hidden="true" d="" pointer-events="none" display="none"/></g></g><g class="mark-group role-axis" role="graphics-symbol" aria-roledescription="axis" aria-label="Y-axis titled 'RNA copies per mL of wastewater, weekly avg (Northern MWRA region)' for a linear scale with values from 0 to 6,500"><g transform="translate(500.5,0.5)"><path class="background" aria-hidden="true" d="M0,0h0v0h0Z" pointer-events="none"/><g><g class="mark-rule role-axis-tick" pointer-events="none"><line transform="translate(0,500)" x2="5" y2="0" stroke="#1b9e77" stroke-width="1" opacity="1"/><line transform="translate(0,14)" x2="5" y2="0" stroke="#1b9e77" stroke-width="1" opacity="1"/></g><g class="mark-text role-axis-label" pointer-events="none"><text text-anchor="start" transform="translate(7,503)" font-family="sans-serif" font-size="10px" fill="#1b9e77" opacity="1">0</text><text text-anchor="start" transform="translate(7,16.692307692307672)" font-family="sans-serif" font-size="10px" fill="#1b9e77" opacity="1">6,322</text></g><g class="mark-text role-axis-title" pointer-events="none"><text text-anchor="end" transform="translate(52.0244140625,250) rotate(90) translate(0,-3)" font-family="sans-serif" font-size="15px" font-weight="normal" fill="#1b9e77" opacity="1">RNA copies per mL of wastewater, weekly avg (Northern MWRA region)</text></g></g><path class="foreground" aria-hidden="true" d="" pointer-events="none" display="none"/></g></g><g class="mark-area role-mark layer_0_marks" role="graphics-object" aria-roledescription="area mark container"><path aria-label="date: Mar 2020; Deaths per 100k, weekly avg (Middlesex, MA): 0" role="graphics-symbol" aria-roledescription="area mark" d="M0,500L0.7507507507507507,500L1.5015015015015014,500L2.2522522522522523,500L2.9717217217217216,500L3.7224724724724725,500L4.473223223223223,500L5.223973973973974,500L5.974724724724725,500L6.725475475475475,500L7.476226226226226,500L8.226976976976978,500L8.977727727727729,500L9.728478478478477,500L10.47922922922923,500L11.22997997997998,500L11.98073073073073,499L12.731481481481481,499L13.482232232232231,499L14.232982982982984,498L14.983733733733734,498L15.734484484484483,496L16.485235235235233,496L17.235985985985987,496L17.986736736736738,495L18.73748748748749,494L19.48823823823824,486L20.238988988988986,485L20.98973973973974,479L21.74049049049049,471L22.49124124124124,471L23.24199199199199,469L23.99274274274274,465L24.743493493493496,455L25.494244244244246,448L26.244994994994993,443L26.995745745745744,438L27.746496496496494,424L28.49724724724725,405L29.247997997998,398L29.99874874874875,395L30.7494994994995,375L31.50025025025025,354L32.251001001001,336L33.001751751751755,325L33.7525025025025,302L34.503253253253256,288L35.254004004004,287.00000000000006L36.00475475475475,258L36.7555055055055,246L37.50625625625625,242L38.25700700700701,239L39.00775775775776,236L39.75850850850851,236L40.50925925925926,230.99999999999997L41.260010010010014,226.99999999999997L42.01076076076076,234L42.76151151151151,234L43.51226226226226,239L44.26301301301301,231.99999999999997L45.01376376376376,237L45.76451451451452,237L46.51526526526527,262L47.26601601601602,271L48.016766766766764,281L48.76751751751752,282L49.518268268268265,292L50.26901901901902,289.00000000000006L51.019769769769766,309L51.77052052052052,312L52.52127127127127,301L53.27202202202203,309L54.022772772772775,322L54.77352352352352,334L55.524274274274276,343L56.27502502502502,330L57.02577577577578,339.99999999999994L57.776526526526524,366L58.52727727727728,368L59.278028028028025,374L60.02877877877877,390L60.77952952952953,398L61.53028028028028,412.00000000000006L62.281031031031034,423L63.03178178178179,424L63.782532532532535,423L64.53328328328328,426L65.28403403403404,414.00000000000006L66.03478478478478,391L66.78553553553554,387L67.53628628628628,387L68.28703703703704,389L69.03778778778778,401L69.78853853853855,407L70.53928928928929,420L71.29004004004004,446L72.0407907907908,449L72.79154154154153,457L73.5422922922923,461L74.29304304304304,457L75.0437937937938,458L75.79454454454454,455L76.5452952952953,454L77.29604604604604,460L78.0467967967968,450L78.79754754754754,451L79.54829829829829,458L80.29904904904906,453L81.0497997997998,455L81.80055055055055,459L82.5513013013013,458L83.30205205205206,465L84.0528028028028,466.99999999999994L84.80355355355356,457L85.5543043043043,457L86.30505505505505,457L87.05580580580582,453L87.80655655655656,453L88.55730730730731,449L89.30805805805805,449L90.05880880880882,450L90.80955955955956,457L91.56031031031031,464L92.31106106106105,465.99999999999994L93.06181181181181,466.99999999999994L93.81256256256256,465L94.56331331331332,468L95.31406406406407,465.99999999999994L96.06481481481481,468L96.81556556556556,466.99999999999994L97.56631631631632,465L98.31706706706707,469L99.06781781781781,473L99.81856856856857,473L100.56931931931932,473L101.32007007007007,473L102.07082082082083,473L102.82157157157157,476L103.57232232232232,476L104.32307307307308,473L105.07382382382383,473L105.82457457457457,480L106.57532532532532,483L107.32607607607608,487L108.07682682682683,488L108.82757757757757,487L109.57832832832833,482L110.32907907907908,482L111.07982982982983,479L111.83058058058059,475L112.58133133133133,475L113.33208208208208,474L114.08283283283284,475L114.83358358358359,475L115.58433433433433,479L116.33508508508508,481L117.08583583583584,483L117.83658658658659,484L118.58733733733735,485L119.33808808808809,485L120.08883883883884,485L120.83958958958958,485L121.59034034034035,485L122.34109109109109,485L123.09184184184184,485L123.84259259259258,485L124.59334334334335,500L125.34409409409409,475L126.09484484484484,473L126.84559559559561,472L127.59634634634634,466.99999999999994L128.3470970970971,466.99999999999994L129.09784784784785,458L129.84859859859858,457L130.59934934934935,479L131.3501001001001,477L132.10085085085086,477L132.85160160160163,481L133.60235235235234,481L134.3531031031031,485L135.10385385385385,485L135.85460460460462,485L136.60535535535536,488L137.3561061061061,488L138.10685685685687,484L138.8576076076076,482L139.60835835835834,483L140.3591091091091,484L141.10985985985985,483L141.86061061061062,480L142.61136136136136,481L143.3621121121121,482L144.11286286286287,480L144.8636136136136,481L145.61436436436438,480L146.3651151151151,477L147.11586586586586,477L147.86661661661662,482L148.61736736736736,484L149.36811811811813,485L150.11886886886887,486L150.8696196196196,484L151.62037037037038,484L152.37112112112112,482L153.12187187187186,480L153.87262262262263,480L154.62337337337337,479L155.37412412412414,477L156.12487487487488,477L156.87562562562562,481L157.62637637637638,484L158.37712712712712,481L159.1278778778779,480L159.8786286286286,480L160.62937937937937,480L161.38013013013014,480L162.13088088088088,481L162.88163163163165,480L163.63238238238236,480L164.38313313313313,482L165.1338838838839,481L165.88463463463464,482L166.63538538538538,481L167.38613613613614,478L168.13688688688688,476L168.88763763763765,472L169.63838838838836,471L170.38913913913913,471L171.1398898898899,470L171.89064064064064,470L172.6413913913914,472L173.39214214214212,469L174.1428928928929,474L174.89364364364366,477L175.6443943943944,474L176.39514514514514,473L177.14589589589588,476L177.89664664664664,471L178.6473973973974,472L179.39814814814815,468L180.1488988988989,468L180.89964964964966,468L181.68168168168168,468L182.43243243243242,471L183.1831831831832,472L183.93393393393393,471L184.6846846846847,473L185.43543543543544,471L186.18618618618618,473L186.93693693693695,474L187.68768768768768,469L188.43843843843842,468L189.1891891891892,468L189.93993993993993,466.99999999999994L190.6906906906907,466.99999999999994L191.44144144144144,468L192.19219219219218,470L192.94294294294295,469L193.6936936936937,471L194.44444444444446,477L195.19519519519517,476L195.94594594594594,475L196.6966966966967,473L197.44744744744744,469L198.1981981981982,470L198.94894894894895,469L199.6996996996997,469L200.45045045045046,472L201.2012012012012,473L201.95195195195194,471L202.7027027027027,470L203.45345345345345,468L204.20420420420422,470L204.95495495495496,466.99999999999994L205.7057057057057,461L206.45645645645646,459L207.2072072072072,456L207.95795795795797,452L208.70870870870868,453L209.45945945945945,440L210.21021021021022,443L210.96096096096096,443L211.7117117117117,441L212.46246246246247,446L213.2132132132132,448L213.96396396396398,449L214.71471471471472,457L215.46546546546546,450L216.21621621621622,448L216.96696696696696,447L217.71771771771773,440L218.46846846846844,443L219.2192192192192,437L219.96996996996998,434L220.72072072072072,428L221.4714714714715,428L222.2222222222222,433L222.97297297297297,434L223.72372372372374,431L224.47447447447448,426L225.22522522522522,418.00000000000006L225.97597597597596,425L226.72672672672672,425L227.4774774774775,427L228.22822822822823,423L228.97897897897897,418.00000000000006L229.72972972972974,420L230.48048048048048,426L231.23123123123125,431L231.98198198198196,430L232.73273273273273,414.00000000000006L233.4834834834835,418.00000000000006L234.23423423423424,419L234.98498498498498,416.00000000000006L235.73573573573572,410.00000000000006L236.48648648648648,409.00000000000006L237.23723723723725,406L237.987987987988,410.00000000000006L238.73873873873873,412.00000000000006L239.48948948948947,416.00000000000006L240.24024024024024,420L240.990990990991,421L241.74174174174172,417.00000000000006L242.4924924924925,416.00000000000006L243.24324324324326,418.00000000000006L243.993993993994,424L244.74474474474476,426L245.49549549549548,427L246.24624624624624,435L246.996996996997,438L247.74774774774775,437L248.4984984984985,426L249.24924924924923,420L250,418.00000000000006L250.75075075075077,419L251.50150150150154,420L252.25225225225222,418.00000000000006L253.003003003003,415.00000000000006L253.75375375375376,422L254.50450450450452,420L255.25525525525526,417.00000000000006L256.006006006006,412.00000000000006L256.7567567567567,410.00000000000006L257.5075075075075,412.00000000000006L258.25825825825825,416.00000000000006L259.00900900900905,418.00000000000006L259.75975975975973,415.00000000000006L260.51051051051047,418.00000000000006L261.26126126126127,416.00000000000006L262.012012012012,423L262.7627627627628,424L263.5135135135135,430L264.2642642642642,433L265.015015015015,438L265.76576576576576,439L266.51651651651656,445L267.2672672672673,441L268.018018018018,442L268.7687687687688,448L269.5195195195195,449L270.27027027027026,450L271.02102102102106,451L271.77177177177174,452L272.52252252252254,455L273.2732732732733,454L274.024024024024,454L274.7747747747748,453L275.5255255255255,451L276.2762762762763,455L277.02702702702703,458L277.77777777777777,459L278.52852852852857,459L279.27927927927925,455L280.03003003003005,457L280.7807807807808,462L281.50025025025025,460L282.251001001001,459L283.0017517517517,461L283.7525025025025,465L284.50325325325326,465.99999999999994L285.254004004004,464L286.00475475475474,464L286.7555055055055,461L287.5062562562563,463L288.257007007007,457L289.00775775775776,450L289.7585085085085,451L290.50925925925924,453L291.26001001001,451L292.0107607607608,454L292.7615115115115,455L293.51226226226225,459L294.263013013013,460L295.01376376376373,460L295.76451451451453,463L296.51526526526527,463L297.26601601601607,464L298.01676676676675,463L298.7675175175175,466.99999999999994L299.5182682682683,474L300.269019019019,480L301.0197697697698,483L301.7705205205205,483L302.52127127127125,489L303.27202202202204,489L304.0227727727728,491L304.7735235235235,491L305.52427427427426,491L306.275025025025,491L307.0257757757758,491L307.77652652652654,491L308.5272772772773,491L309.278028028028,492L310.02877877877876,490L310.77952952952955,488L311.5302802802803,488L312.28103103103103,488L313.0317817817818,488L313.7825325325325,488L314.5332832832833,488L315.28403403403405,488L316.0347847847848,489L316.78553553553553,489L317.53628628628627,489L318.287037037037,489L319.0377877877878,489L319.78853853853855,488L320.5392892892893,488L321.29004004004,490L322.04079079079077,490L322.79154154154156,490L323.5422922922923,490L324.29304304304304,490L325.0437937937938,490L325.7945445445445,494L326.5452952952953,493L327.29604604604606,493L328.04679679679674,493L328.79754754754754,493L329.5482982982983,492L330.2990490490491,491L331.0497997997998,491L331.80055055055055,489L332.5513013013013,489L333.30205205205203,489L334.05280280280283,489L334.80355355355357,495L335.5543043043043,496L336.30505505505505,496L337.0558058058058,496L337.8065565565566,495L338.5573073073073,495L339.30805805805807,495L340.0588088088088,494L340.80955955955955,494L341.5603103103103,494L342.3110610610611,494L343.0618118118118,494L343.81256256256256,493L344.5633133133133,493L345.31406406406404,492L346.06481481481484,492L346.8155655655656,492L347.5663163163163,492L348.31706706706706,492L349.0678178178178,492L349.8185685685686,492L350.56931931931933,492L351.3200700700701,492L352.0708208208208,500L352.82157157157155,499L353.57232232232235,498L354.3230730730731,498L355.0738238238238,496L355.82457457457457,496L356.5753253253253,495L357.3260760760761,495L358.07682682682685,495L358.82757757757753,495L359.5783283283283,495L360.32907907907907,496L361.07982982982986,496L361.8305805805806,496L362.58133133133134,497L363.3320820820821,496L364.0828328328328,496L364.83358358358356,496L365.58433433433436,496L366.3350850850851,497L367.08583583583584,497L367.8365865865866,496L368.5873373373373,496L369.3380880880881,496L370.08883883883885,496L370.8395895895896,497L371.59034034034033,497L372.3410910910911,496L373.09184184184187,496L373.8425925925926,496L374.59334334334335,496L375.3440940940941,496L376.09484484484483,496L376.8455955955956,496L377.59634634634637,496L378.34709709709705,496L379.09784784784785,496L379.8485985985986,496L380.5993493493494,496L381.3501001001001,496L382.1008508508508,496L382.8516016016016,496L383.60235235235234,496L384.35310310310314,497L385.1038538538539,497L385.85460460460456,497L386.60535535535536,497L387.3561061061061,496L388.10685685685684,496L388.85760760760763,497L389.6083583583583,497L390.3591091091091,497L391.10985985985985,497L391.8606106106106,497L392.6113613613614,498L393.36211211211213,498L394.11286286286287,497L394.8636136136136,497L395.61436436436435,497L396.36511511511515,497L397.1158658658659,497L397.8666166166166,497L398.61736736736736,497L399.3681181181181,497L400.1188688688689,498L400.86961961961964,498L401.6203703703703,498L402.3711211211211,498L403.12187187187186,496L403.87262262262266,496L404.6233733733734,496L405.3741241241241,496L406.1248748748749,496L406.8756256256256,496L407.6263763763764,494L408.37712712712715,495L409.12787787787784,495L409.87862862862863,495L410.6293793793794,494L411.3801301301301,494L412.1308808808809,494L412.8816316316316,494L413.6323823823824,494L414.38313313313313,490L415.13388388388387,490L415.88463463463466,489L416.63538538538535,489L417.38613613613614,489L418.1368868868869,490L418.8876376376376,488L419.6383883883884,489L420.3891391391391,487L421.1398898898899,488L421.89064064064064,488L422.6413913913914,488L423.3921421421422,489L424.1428928928929,488L424.8936436436436,488L425.6443943943944,488L426.39514514514514,488L427.14589589589593,488L427.8966466466467,488L428.64739739739736,487L429.39814814814815,488L430.1488988988989,487L430.8996496496497,486L431.65040040040043,486L432.4011511511511,486L433.1519019019019,486L433.90265265265265,488L434.6534034034034,487L435.4041541541542,488L436.15490490490487,488L436.90565565565566,486L437.6564064064064,486L438.40715715715714,486L439.15790790790794,486L439.9086586586586,485L440.6594094094094,484L441.41016016016016,487L442.1609109109109,487L442.9116616616617,487L443.6624124124124,487L444.4131631631632,493L445.1639139139139,491L445.91466466466466,492L446.66541541541545,490L447.41616616616614,490L448.1669169169169,490L448.9176676676677,490L449.6684184184184,488L450.4191691691692,489L451.1699199199199,488L451.92067067067063,489L452.6714214214214,489L453.42217217217217,489L454.17292292292296,489L454.9236736736737,490L455.6744244244244,490L456.4251751751752,492L457.1759259259259,492L457.92667667667666,491L458.67742742742746,491L459.42817817817814,491L460.21021021021016,491L460.96096096096096,489L461.7117117117117,488L462.4624624624625,488L463.21321321321324,492L463.9639639639639,492L464.7147147147147,492L465.46546546546546,493L466.21621621621625,491L466.966966966967,491L467.7177177177177,491L468.4684684684685,487L469.2192192192192,487L469.96996996996995,487L470.72072072072075,488L471.47147147147143,485L472.22222222222223,486L472.97297297297297,486L473.7237237237237,488L474.4744744744745,488L475.2252252252252,488L475.975975975976,488L476.7267267267267,488L477.47747747747746,488L478.22822822822826,481L478.97897897897894,478L479.72972972972974,478L480.4804804804805,478L481.2312312312312,476L481.981981981982,473L482.7327327327327,473L483.48348348348344,480L484.23423423423424,479L484.984984984985,479L485.7357357357358,479L486.4864864864865,475L487.2372372372372,477L487.987987987988,474L488.73873873873873,474L489.48948948948953,469L490.24024024024027,469L490.99099099099095,469L491.74174174174175,473L492.4924924924925,473L493.2432432432433,470L493.993993993994,462L494.7447447447447,466.99999999999994L495.4954954954955,466.99999999999994L496.24624624624624,466.99999999999994L496.996996996997,465.99999999999994L497.7477477477478,464L498.49849849849846,464L499.24924924924926,468L500,469L500,500L499.24924924924926,500L498.49849849849846,500L497.7477477477478,500L496.996996996997,500L496.24624624624624,500L495.4954954954955,500L494.7447447447447,500L493.993993993994,500L493.2432432432433,500L492.4924924924925,500L491.74174174174175,500L490.99099099099095,500L490.24024024024027,500L489.48948948948953,500L488.73873873873873,500L487.987987987988,500L487.2372372372372,500L486.4864864864865,500L485.7357357357358,500L484.984984984985,500L484.23423423423424,500L483.48348348348344,500L482.7327327327327,500L481.981981981982,500L481.2312312312312,500L480.4804804804805,500L479.72972972972974,500L478.97897897897894,500L478.22822822822826,500L477.47747747747746,500L476.7267267267267,500L475.975975975976,500L475.2252252252252,500L474.4744744744745,500L473.7237237237237,500L472.97297297297297,500L472.22222222222223,500L471.47147147147143,500L470.72072072072075,500L469.96996996996995,500L469.2192192192192,500L468.4684684684685,500L467.7177177177177,500L466.966966966967,500L466.21621621621625,500L465.46546546546546,500L464.7147147147147,500L463.9639639639639,500L463.21321321321324,500L462.4624624624625,500L461.7117117117117,500L460.96096096096096,500L460.21021021021016,500L459.42817817817814,500L458.67742742742746,500L457.92667667667666,500L457.1759259259259,500L456.4251751751752,500L455.6744244244244,500L454.9236736736737,500L454.17292292292296,500L453.42217217217217,500L452.6714214214214,500L451.92067067067063,500L451.1699199199199,500L450.4191691691692,500L449.6684184184184,500L448.9176676676677,500L448.1669169169169,500L447.41616616616614,500L446.66541541541545,500L445.91466466466466,500L445.1639139139139,500L444.4131631631632,500L443.6624124124124,500L442.9116616616617,500L442.1609109109109,500L441.41016016016016,500L440.6594094094094,500L439.9086586586586,500L439.15790790790794,500L438.40715715715714,500L437.6564064064064,500L436.90565565565566,500L436.15490490490487,500L435.4041541541542,500L434.6534034034034,500L433.90265265265265,500L433.1519019019019,500L432.4011511511511,500L431.65040040040043,500L430.8996496496497,500L430.1488988988989,500L429.39814814814815,500L428.64739739739736,500L427.8966466466467,500L427.14589589589593,500L426.39514514514514,500L425.6443943943944,500L424.8936436436436,500L424.1428928928929,500L423.3921421421422,500L422.6413913913914,500L421.89064064064064,500L421.1398898898899,500L420.3891391391391,500L419.6383883883884,500L418.8876376376376,500L418.1368868868869,500L417.38613613613614,500L416.63538538538535,500L415.88463463463466,500L415.13388388388387,500L414.38313313313313,500L413.6323823823824,500L412.8816316316316,500L412.1308808808809,500L411.3801301301301,500L410.6293793793794,500L409.87862862862863,500L409.12787787787784,500L408.37712712712715,500L407.6263763763764,500L406.8756256256256,500L406.1248748748749,500L405.3741241241241,500L404.6233733733734,500L403.87262262262266,500L403.12187187187186,500L402.3711211211211,500L401.6203703703703,500L400.86961961961964,500L400.1188688688689,500L399.3681181181181,500L398.61736736736736,500L397.8666166166166,500L397.1158658658659,500L396.36511511511515,500L395.61436436436435,500L394.8636136136136,500L394.11286286286287,500L393.36211211211213,500L392.6113613613614,500L391.8606106106106,500L391.10985985985985,500L390.3591091091091,500L389.6083583583583,500L388.85760760760763,500L388.10685685685684,500L387.3561061061061,500L386.60535535535536,500L385.85460460460456,500L385.1038538538539,500L384.35310310310314,500L383.60235235235234,500L382.8516016016016,500L382.1008508508508,500L381.3501001001001,500L380.5993493493494,500L379.8485985985986,500L379.09784784784785,500L378.34709709709705,500L377.59634634634637,500L376.8455955955956,500L376.09484484484483,500L375.3440940940941,500L374.59334334334335,500L373.8425925925926,500L373.09184184184187,500L372.3410910910911,500L371.59034034034033,500L370.8395895895896,500L370.08883883883885,500L369.3380880880881,500L368.5873373373373,500L367.8365865865866,500L367.08583583583584,500L366.3350850850851,500L365.58433433433436,500L364.83358358358356,500L364.0828328328328,500L363.3320820820821,500L362.58133133133134,500L361.8305805805806,500L361.07982982982986,500L360.32907907907907,500L359.5783283283283,500L358.82757757757753,500L358.07682682682685,500L357.3260760760761,500L356.5753253253253,500L355.82457457457457,500L355.0738238238238,500L354.3230730730731,500L353.57232232232235,500L352.82157157157155,500L352.0708208208208,500L351.3200700700701,500L350.56931931931933,500L349.8185685685686,500L349.0678178178178,500L348.31706706706706,500L347.5663163163163,500L346.8155655655656,500L346.06481481481484,500L345.31406406406404,500L344.5633133133133,500L343.81256256256256,500L343.0618118118118,500L342.3110610610611,500L341.5603103103103,500L340.80955955955955,500L340.0588088088088,500L339.30805805805807,500L338.5573073073073,500L337.8065565565566,500L337.0558058058058,500L336.30505505505505,500L335.5543043043043,500L334.80355355355357,500L334.05280280280283,500L333.30205205205203,500L332.5513013013013,500L331.80055055055055,500L331.0497997997998,500L330.2990490490491,500L329.5482982982983,500L328.79754754754754,500L328.04679679679674,500L327.29604604604606,500L326.5452952952953,500L325.7945445445445,500L325.0437937937938,500L324.29304304304304,500L323.5422922922923,500L322.79154154154156,500L322.04079079079077,500L321.29004004004,500L320.5392892892893,500L319.78853853853855,500L319.0377877877878,500L318.287037037037,500L317.53628628628627,500L316.78553553553553,500L316.0347847847848,500L315.28403403403405,500L314.5332832832833,500L313.7825325325325,500L313.0317817817818,500L312.28103103103103,500L311.5302802802803,500L310.77952952952955,500L310.02877877877876,500L309.278028028028,500L308.5272772772773,500L307.77652652652654,500L307.0257757757758,500L306.275025025025,500L305.52427427427426,500L304.7735235235235,500L304.0227727727728,500L303.27202202202204,500L302.52127127127125,500L301.7705205205205,500L301.0197697697698,500L300.269019019019,500L299.5182682682683,500L298.7675175175175,500L298.01676676676675,500L297.26601601601607,500L296.51526526526527,500L295.76451451451453,500L295.01376376376373,500L294.263013013013,500L293.51226226226225,500L292.7615115115115,500L292.0107607607608,500L291.26001001001,500L290.50925925925924,500L289.7585085085085,500L289.00775775775776,500L288.257007007007,500L287.5062562562563,500L286.7555055055055,500L286.00475475475474,500L285.254004004004,500L284.50325325325326,500L283.7525025025025,500L283.0017517517517,500L282.251001001001,500L281.50025025025025,500L280.7807807807808,500L280.03003003003005,500L279.27927927927925,500L278.52852852852857,500L277.77777777777777,500L277.02702702702703,500L276.2762762762763,500L275.5255255255255,500L274.7747747747748,500L274.024024024024,500L273.2732732732733,500L272.52252252252254,500L271.77177177177174,500L271.02102102102106,500L270.27027027027026,500L269.5195195195195,500L268.7687687687688,500L268.018018018018,500L267.2672672672673,500L266.51651651651656,500L265.76576576576576,500L265.015015015015,500L264.2642642642642,500L263.5135135135135,500L262.7627627627628,500L262.012012012012,500L261.26126126126127,500L260.51051051051047,500L259.75975975975973,500L259.00900900900905,500L258.25825825825825,500L257.5075075075075,500L256.7567567567567,500L256.006006006006,500L255.25525525525526,500L254.50450450450452,500L253.75375375375376,500L253.003003003003,500L252.25225225225222,500L251.50150150150154,500L250.75075075075077,500L250,500L249.24924924924923,500L248.4984984984985,500L247.74774774774775,500L246.996996996997,500L246.24624624624624,500L245.49549549549548,500L244.74474474474476,500L243.993993993994,500L243.24324324324326,500L242.4924924924925,500L241.74174174174172,500L240.990990990991,500L240.24024024024024,500L239.48948948948947,500L238.73873873873873,500L237.987987987988,500L237.23723723723725,500L236.48648648648648,500L235.73573573573572,500L234.98498498498498,500L234.23423423423424,500L233.4834834834835,500L232.73273273273273,500L231.98198198198196,500L231.23123123123125,500L230.48048048048048,500L229.72972972972974,500L228.97897897897897,500L228.22822822822823,500L227.4774774774775,500L226.72672672672672,500L225.97597597597596,500L225.22522522522522,500L224.47447447447448,500L223.72372372372374,500L222.97297297297297,500L222.2222222222222,500L221.4714714714715,500L220.72072072072072,500L219.96996996996998,500L219.2192192192192,500L218.46846846846844,500L217.71771771771773,500L216.96696696696696,500L216.21621621621622,500L215.46546546546546,500L214.71471471471472,500L213.96396396396398,500L213.2132132132132,500L212.46246246246247,500L211.7117117117117,500L210.96096096096096,500L210.21021021021022,500L209.45945945945945,500L208.70870870870868,500L207.95795795795797,500L207.2072072072072,500L206.45645645645646,500L205.7057057057057,500L204.95495495495496,500L204.20420420420422,500L203.45345345345345,500L202.7027027027027,500L201.95195195195194,500L201.2012012012012,500L200.45045045045046,500L199.6996996996997,500L198.94894894894895,500L198.1981981981982,500L197.44744744744744,500L196.6966966966967,500L195.94594594594594,500L195.19519519519517,500L194.44444444444446,500L193.6936936936937,500L192.94294294294295,500L192.19219219219218,500L191.44144144144144,500L190.6906906906907,500L189.93993993993993,500L189.1891891891892,500L188.43843843843842,500L187.68768768768768,500L186.93693693693695,500L186.18618618618618,500L185.43543543543544,500L184.6846846846847,500L183.93393393393393,500L183.1831831831832,500L182.43243243243242,500L181.68168168168168,500L180.89964964964966,500L180.1488988988989,500L179.39814814814815,500L178.6473973973974,500L177.89664664664664,500L177.14589589589588,500L176.39514514514514,500L175.6443943943944,500L174.89364364364366,500L174.1428928928929,500L173.39214214214212,500L172.6413913913914,500L171.89064064064064,500L171.1398898898899,500L170.38913913913913,500L169.63838838838836,500L168.88763763763765,500L168.13688688688688,500L167.38613613613614,500L166.63538538538538,500L165.88463463463464,500L165.1338838838839,500L164.38313313313313,500L163.63238238238236,500L162.88163163163165,500L162.13088088088088,500L161.38013013013014,500L160.62937937937937,500L159.8786286286286,500L159.1278778778779,500L158.37712712712712,500L157.62637637637638,500L156.87562562562562,500L156.12487487487488,500L155.37412412412414,500L154.62337337337337,500L153.87262262262263,500L153.12187187187186,500L152.37112112112112,500L151.62037037037038,500L150.8696196196196,500L150.11886886886887,500L149.36811811811813,500L148.61736736736736,500L147.86661661661662,500L147.11586586586586,500L146.3651151151151,500L145.61436436436438,500L144.8636136136136,500L144.11286286286287,500L143.3621121121121,500L142.61136136136136,500L141.86061061061062,500L141.10985985985985,500L140.3591091091091,500L139.60835835835834,500L138.8576076076076,500L138.10685685685687,500L137.3561061061061,500L136.60535535535536,500L135.85460460460462,500L135.10385385385385,500L134.3531031031031,500L133.60235235235234,500L132.85160160160163,500L132.10085085085086,500L131.3501001001001,500L130.59934934934935,500L129.84859859859858,500L129.09784784784785,500L128.3470970970971,500L127.59634634634634,500L126.84559559559561,500L126.09484484484484,500L125.34409409409409,500L124.59334334334335,500L123.84259259259258,500L123.09184184184184,500L122.34109109109109,500L121.59034034034035,500L120.83958958958958,500L120.08883883883884,500L119.33808808808809,500L118.58733733733735,500L117.83658658658659,500L117.08583583583584,500L116.33508508508508,500L115.58433433433433,500L114.83358358358359,500L114.08283283283284,500L113.33208208208208,500L112.58133133133133,500L111.83058058058059,500L111.07982982982983,500L110.32907907907908,500L109.57832832832833,500L108.82757757757757,500L108.07682682682683,500L107.32607607607608,500L106.57532532532532,500L105.82457457457457,500L105.07382382382383,500L104.32307307307308,500L103.57232232232232,500L102.82157157157157,500L102.07082082082083,500L101.32007007007007,500L100.56931931931932,500L99.81856856856857,500L99.06781781781781,500L98.31706706706707,500L97.56631631631632,500L96.81556556556556,500L96.06481481481481,500L95.31406406406407,500L94.56331331331332,500L93.81256256256256,500L93.06181181181181,500L92.31106106106105,500L91.56031031031031,500L90.80955955955956,500L90.05880880880882,500L89.30805805805805,500L88.55730730730731,500L87.80655655655656,500L87.05580580580582,500L86.30505505505505,500L85.5543043043043,500L84.80355355355356,500L84.0528028028028,500L83.30205205205206,500L82.5513013013013,500L81.80055055055055,500L81.0497997997998,500L80.29904904904906,500L79.54829829829829,500L78.79754754754754,500L78.0467967967968,500L77.29604604604604,500L76.5452952952953,500L75.79454454454454,500L75.0437937937938,500L74.29304304304304,500L73.5422922922923,500L72.79154154154153,500L72.0407907907908,500L71.29004004004004,500L70.53928928928929,500L69.78853853853855,500L69.03778778778778,500L68.28703703703704,500L67.53628628628628,500L66.78553553553554,500L66.03478478478478,500L65.28403403403404,500L64.53328328328328,500L63.782532532532535,500L63.03178178178179,500L62.281031031031034,500L61.53028028028028,500L60.77952952952953,500L60.02877877877877,500L59.278028028028025,500L58.52727727727728,500L57.776526526526524,500L57.02577577577578,500L56.27502502502502,500L55.524274274274276,500L54.77352352352352,500L54.022772772772775,500L53.27202202202203,500L52.52127127127127,500L51.77052052052052,500L51.019769769769766,500L50.26901901901902,500L49.518268268268265,500L48.76751751751752,500L48.016766766766764,500L47.26601601601602,500L46.51526526526527,500L45.76451451451452,500L45.01376376376376,500L44.26301301301301,500L43.51226226226226,500L42.76151151151151,500L42.01076076076076,500L41.260010010010014,500L40.50925925925926,500L39.75850850850851,500L39.00775775775776,500L38.25700700700701,500L37.50625625625625,500L36.7555055055055,500L36.00475475475475,500L35.254004004004,500L34.503253253253256,500L33.7525025025025,500L33.001751751751755,500L32.251001001001,500L31.50025025025025,500L30.7494994994995,500L29.99874874874875,500L29.247997997998,500L28.49724724724725,500L27.746496496496494,500L26.995745745745744,500L26.244994994994993,500L25.494244244244246,500L24.743493493493496,500L23.99274274274274,500L23.24199199199199,500L22.49124124124124,500L21.74049049049049,500L20.98973973973974,500L20.238988988988986,500L19.48823823823824,500L18.73748748748749,500L17.986736736736738,500L17.235985985985987,500L16.485235235235233,500L15.734484484484483,500L14.983733733733734,500L14.232982982982984,500L13.482232232232231,500L12.731481481481481,500L11.98073073073073,500L11.22997997997998,500L10.47922922922923,500L9.728478478478477,500L8.977727727727729,500L8.226976976976978,500L7.476226226226226,500L6.725475475475475,500L5.974724724724725,500L5.223973973973974,500L4.473223223223223,500L3.7224724724724725,500L2.9717217217217216,500L2.2522522522522523,500L1.5015015015015014,500L0.7507507507507507,500L0,500Z" fill="#444" opacity="0.1"/></g><g class="mark-line role-mark layer_1_marks" role="graphics-object" aria-roledescription="line mark container"><path aria-label="date: Mar 2020; Cases per 100k, weekly avg (Middlesex, MA): 0.01" role="graphics-symbol" aria-roledescription="line mark" d="M0,499.99L0.7507507507507507,499.99L1.5015015015015014,499.96000000000004L2.2522522522522523,499.91L2.9717217217217216,499.87L3.7224724724724725,499.64L4.473223223223223,499.64L5.223973973973974,499.57L5.974724724724725,499.53999999999996L6.725475475475475,499.47L7.476226226226226,499.41999999999996L8.226976976976978,499.40000000000003L8.977727727727729,499.57L9.728478478478477,499.53999999999996L10.47922922922923,499.38L11.22997997997998,499.26L11.98073073073073,499.01L12.731481481481481,498.90000000000003L13.482232232232231,498.68L14.232982982982984,498.09L14.983733733733734,496.93L15.734484484484483,496.29L16.485235235235233,495.2L17.235985985985987,494.11L17.986736736736738,493.07L18.73748748748749,491.94L19.48823823823824,490.82L20.238988988988986,489.92999999999995L20.98973973973974,488.19L21.74049049049049,486.54999999999995L22.49124124124124,485.59000000000003L23.24199199199199,485.37L23.99274274274274,483.97L24.743493493493496,483.63L25.494244244244246,482.6L26.244994994994993,480.71999999999997L26.995745745745744,480.1L27.746496496496494,478.69L28.49724724724725,473.16L29.247997997998,473.12L29.99874874874875,472.81L30.7494994994995,472.2L31.50025025025025,471.98L32.251001001001,470.78L33.001751751751755,469.64L33.7525025025025,472.72999999999996L34.503253253253256,471.02L35.254004004004,470.16L36.00475475475475,469.75L36.7555055055055,468.82L37.50625625625625,465.1L38.25700700700701,464.93L39.00775775775776,465.33000000000004L39.75850850850851,467.2L40.50925925925926,466.34999999999997L41.260010010010014,467.16L42.01076076076076,469.12L42.76151151151151,474.06L43.51226226226226,475.22999999999996L44.26301301301301,475.87L45.01376376376376,475.15000000000003L45.76451451451452,477.28L46.51526526526527,477.59000000000003L47.26601601601602,478.12L48.016766766766764,478.65999999999997L48.76751751751752,479.98L49.518268268268265,480.33L50.26901901901902,482.12L51.019769769769766,482.51L51.77052052052052,483.39L52.52127127127127,484.89L53.27202202202203,485.21L54.022772772772775,486.03000000000003L54.77352352352352,486.35L55.524274274274276,486.08L56.27502502502502,486.25L57.02577577577578,486.64000000000004L57.776526526526524,486.27L58.52727727727728,487.57L59.278028028028025,488.03999999999996L60.02877877877877,488.41L60.77952952952953,489.42L61.53028028028028,490.28L62.281031031031034,491.15L63.03178178178179,491.78L63.782532532532535,492.14000000000004L64.53328328328328,492.09000000000003L65.28403403403404,492.47L66.03478478478478,485.06L66.78553553553554,484.98L67.53628628628628,484.96L68.28703703703704,485.57L69.03778778778778,485.71999999999997L69.78853853853855,486.15000000000003L70.53928928928929,487L71.29004004004004,494.79L72.0407907907908,495.13L72.79154154154153,495.69L73.5422922922923,495.47L74.29304304304304,495.64000000000004L75.0437937937938,495.83L75.79454454454454,496.09L76.5452952952953,496.32L77.29604604604604,496.24L78.0467967967968,495.95L78.79754754754754,496.36L79.54829829829829,496.55L80.29904904904906,496.56L81.0497997997998,496.64000000000004L81.80055055055055,496.61L82.5513013013013,496.65L83.30205205205206,496.89L84.0528028028028,497.03999999999996L84.80355355355356,497.15L85.5543043043043,497.21L86.30505505505505,496.97999999999996L87.05580580580582,497.01L87.80655655655656,497.21L88.55730730730731,497.33L89.30805805805805,497.36L90.05880880880882,497.37L90.80955955955956,497.73L91.56031031031031,497.89L92.31106106106105,497.81L93.06181181181181,497.51L93.81256256256256,497.32L94.56331331331332,497.26L95.31406406406407,497.39L96.06481481481481,497.15L96.81556556556556,497.07L97.56631631631632,496.96000000000004L98.31706706706707,496.84000000000003L99.06781781781781,496.88L99.81856856856857,497.01L100.56931931931932,496.8L101.32007007007007,496.69L102.07082082082083,496.43L102.82157157157157,496.26L103.57232232232232,496.36L104.32307307307308,496.17L105.07382382382383,496.12L105.82457457457457,495.99L106.57532532532532,496.09L107.32607607607608,496.03999999999996L108.07682682682683,496.12L108.82757757757757,496.29L109.57832832832833,496L110.32907907907908,495.62L111.07982982982983,495.43L111.83058058058059,495.12L112.58133133133133,495.03000000000003L113.33208208208208,495.25L114.08283283283284,494.7L114.83358358358359,494.91L115.58433433433433,495.21999999999997L116.33508508508508,495.14000000000004L117.08583583583584,495.18L117.83658658658659,495.34L118.58733733733735,495.23L119.33808808808809,495.23L120.08883883883884,495.23L120.83958958958958,495.23L121.59034034034035,495.23L122.34109109109109,495.23L123.09184184184184,495.23L123.84259259259258,495.23L124.59334334334335,500L125.34409409409409,497.07L126.09484484484484,496.55L126.84559559559561,495.89L127.59634634634634,495.65L128.3470970970971,495.65L129.09784784784785,494.74L129.84859859859858,493.95L130.59934934934935,496.45L131.3501001001001,496.25L132.10085085085086,496.15L132.85160160160163,495.51L133.60235235235234,495.82L134.3531031031031,495.51L135.10385385385385,495.71L135.85460460460462,495.71L136.60535535535536,495.39L137.3561061061061,495.55L138.10685685685687,495.68L138.8576076076076,495.83L139.60835835835834,495.76L140.3591091091091,496.03000000000003L141.10985985985985,496.14000000000004L141.86061061061062,496.14000000000004L142.61136136136136,495.90000000000003L143.3621121121121,495.49L144.11286286286287,495.83L144.8636136136136,495.62L145.61436436436438,495.46000000000004L146.3651151151151,495.25L147.11586586586586,495.23L147.86661661661662,495.36L148.61736736736736,495.51L149.36811811811813,495.12L150.11886886886887,495.23L150.8696196196196,495.43L151.62037037037038,495.03999999999996L152.37112112112112,495.17L153.12187187187186,495.05L153.87262262262263,495.06L154.62337337337337,494.61L155.37412412412414,494.61L156.12487487487488,493.91L156.87562562562562,493.96000000000004L157.62637637637638,493.21999999999997L158.37712712712712,492.39L159.1278778778779,492.02000000000004L159.8786286286286,492L160.62937937937937,491.88L161.38013013013014,492.15999999999997L162.13088088088088,491.94L162.88163163163165,492.39L163.63238238238236,492.59999999999997L164.38313313313313,492.77L165.1338838838839,492.8L165.88463463463464,491.86999999999995L166.63538538538538,491.44L167.38613613613614,491.78L168.13688688688688,491.59L168.88763763763765,491.74L169.63838838838836,491.77L170.38913913913913,491.75L171.1398898898899,491.52000000000004L171.89064064064064,491.06L172.6413913913914,490.76L173.39214214214212,490.52000000000004L174.1428928928929,490.21999999999997L174.89364364364366,489.48L175.6443943943944,488.73L176.39514514514514,489.20000000000005L177.14589589589588,489.12L177.89664664664664,488.42L178.6473973973974,487.95L179.39814814814815,487.02L180.1488988988989,486.48L180.89964964964966,486.48999999999995L181.68168168168168,486.65000000000003L182.43243243243242,486.48L183.1831831831832,485.43L183.93393393393393,484.41L184.6846846846847,483.63L185.43543543543544,482.02L186.18618618618618,480.52L186.93693693693695,479.88L187.68768768768768,478.75L188.43843843843842,477.21000000000004L189.1891891891892,475.39L189.93993993993993,473.66999999999996L190.6906906906907,472.82L191.44144144144144,471.04L192.19219219219218,469.28000000000003L192.94294294294295,468.08L193.6936936936937,467.71000000000004L194.44444444444446,467.39L195.19519519519517,468.38L195.94594594594594,466.92L196.6966966966967,466.56L197.44744744744744,466.37L198.1981981981982,466.8L198.94894894894895,465.68L199.6996996996997,465.68L200.45045045045046,465.46L201.2012012012012,464.72999999999996L201.95195195195194,464.96L202.7027027027027,466.38L203.45345345345345,465.60999999999996L204.20420420420422,463.37L204.95495495495496,458.44L205.7057057057057,450.96999999999997L206.45645645645646,447.29L207.2072072072072,443.51L207.95795795795797,441.41999999999996L208.70870870870868,439.95L209.45945945945945,437.87L210.21021021021022,439.11L210.96096096096096,440.24L211.7117117117117,441.17L212.46246246246247,440.32L213.2132132132132,437.99L213.96396396396398,437.03999999999996L214.71471471471472,438.31L215.46546546546546,438.34000000000003L216.21621621621622,436.64000000000004L216.96696696696696,439.42L217.71771771771773,441.72L218.46846846846844,440.87L219.2192192192192,441.39L219.96996996996998,442.26L220.72072072072072,442.05L221.4714714714715,442.05L222.2222222222222,447.12L222.97297297297297,449.52000000000004L223.72372372372374,450.2L224.47447447447448,449.12L225.22522522522522,445.53999999999996L225.97597597597596,443.66L226.72672672672672,443.66L227.4774774774775,442.62L228.22822822822823,442.62L228.97897897897897,442.03999999999996L229.72972972972974,442.09999999999997L230.48048048048048,442.26L231.23123123123125,441.3L231.98198198198196,437.31L232.73273273273273,430.06L233.4834834834835,427.33L234.23423423423424,427.65L234.98498498498498,425.91L235.73573573573572,428.33L236.48648648648648,431.21L237.23723723723725,436L237.987987987988,439.43L238.73873873873873,440.07L239.48948948948947,441.61L240.24024024024024,446.84000000000003L240.990990990991,449.18L241.74174174174172,451.13000000000005L242.4924924924925,452.02L243.24324324324326,453.63L243.993993993994,454.89000000000004L244.74474474474476,455.08L245.49549549549548,455.96999999999997L246.24624624624624,456.31L246.996996996997,457.8L247.74774774774775,460.61999999999995L248.4984984984985,461.78999999999996L249.24924924924923,464.11L250,465.28000000000003L250.75075075075077,464.96L251.50150150150154,468.07L252.25225225225222,470.68L253.003003003003,470.15000000000003L253.75375375375376,471.26L254.50450450450452,470.33000000000004L255.25525525525526,472.28L256.006006006006,473.65000000000003L256.7567567567567,473.86L257.5075075075075,474.28999999999996L258.25825825825825,475.46L259.00900900900905,477.08L259.75975975975973,478.82000000000005L260.51051051051047,478.10999999999996L261.26126126126127,478.57L262.012012012012,479.60999999999996L262.7627627627628,479.82000000000005L263.5135135135135,480.65999999999997L264.2642642642642,481.02L265.015015015015,482.07L265.76576576576576,483.20000000000005L266.51651651651656,482.77L267.2672672672673,481.59000000000003L268.018018018018,481.03000000000003L268.7687687687688,481.04999999999995L269.5195195195195,481.85L270.27027027027026,481.21999999999997L271.02102102102106,480.71999999999997L271.77177177177174,480.71999999999997L272.52252252252254,479.96L273.2732732732733,480.76000000000005L274.024024024024,481.71999999999997L274.7747747747748,481.86L275.5255255255255,481.71L276.2762762762763,482.41L277.02702702702703,482.96L277.77777777777777,482.82000000000005L278.52852852852857,482.5L279.27927927927925,481.53000000000003L280.03003003003005,481.26000000000005L280.7807807807808,481L281.50025025025025,480.76000000000005L282.251001001001,480.47L283.0017517517517,479.71000000000004L283.7525025025025,478.6L284.50325325325326,478.68L285.254004004004,478.16L286.00475475475474,477.59000000000003L286.7555055055055,477.25L287.5062562562563,476.85L288.257007007007,476.64L289.00775775775776,476.48L289.7585085085085,475.75L290.50925925925924,474.77000000000004L291.26001001001,474.69L292.0107607607608,474.02L292.7615115115115,473.84999999999997L293.51226226226225,473.42L294.263013013013,472.77000000000004L295.01376376376373,473.06L295.76451451451453,473.45L296.51526526526527,473.45L297.26601601601607,474.63L298.01676676676675,474.46L298.7675175175175,474.3L299.5182682682683,474.92L300.269019019019,474.72999999999996L301.0197697697698,474.52L301.7705205205205,474.2L302.52127127127125,473.02L303.27202202202204,474.01L304.0227727727728,474.62L304.7735235235235,475.06L305.52427427427426,475.43L306.275025025025,476.81L307.0257757757758,478.46L307.77652652652654,479.22999999999996L308.5272772772773,479.76000000000005L309.278028028028,481.23L310.02877877877876,482.58L310.77952952952955,483.79L311.5302802802803,484.10999999999996L312.28103103103103,484.59999999999997L313.0317817817818,485.39L313.7825325325325,485.35L314.5332832832833,485.29L315.28403403403405,485.42L316.0347847847848,485.92999999999995L316.78553553553553,486.77L317.53628628628627,487.33L318.287037037037,488.03000000000003L319.0377877877878,488.27L319.78853853853855,489.33L320.5392892892893,489.81L321.29004004004,490.42L322.04079079079077,491.07L322.79154154154156,491.42L323.5422922922923,491.47L324.29304304304304,492.39L325.0437937937938,492.55L325.7945445445445,493.53999999999996L326.5452952952953,494.58000000000004L327.29604604604606,494.84L328.04679679679674,495.01L328.79754754754754,495.37L329.5482982982983,495.11L330.2990490490491,495.76L331.0497997997998,495.82L331.80055055055055,495.58000000000004L332.5513013013013,495.75L333.30205205205203,496.02000000000004L334.05280280280283,495.99L334.80355355355357,496.13L335.5543043043043,496.07L336.30505505505505,496.49L337.0558058058058,496.65L337.8065565565566,497.15999999999997L338.5573073073073,497.45L339.30805805805807,497.45L340.0588088088088,497.71L340.80955955955955,498.24L341.5603103103103,498.03L342.3110610610611,498.32L343.0618118118118,498.2L343.81256256256256,498.27L344.5633133133133,498.37L345.31406406406404,498.3L346.06481481481484,498.29L346.8155655655656,498.62L347.5663163163163,498.71999999999997L348.31706706706706,498.91L349.0678178178178,498.97L349.8185685685686,499.02000000000004L350.56931931931933,499.15999999999997L351.3200700700701,499.14L352.0708208208208,499.21999999999997L352.82157157157155,499.14L353.57232232232235,499.15999999999997L354.3230730730731,499.15L355.0738238238238,499.15999999999997L355.82457457457457,499.18L356.5753253253253,499.17L357.3260760760761,499.03999999999996L358.07682682682685,499.09999999999997L358.82757757757753,499.15999999999997L359.5783283283283,499.15999999999997L360.32907907907907,499.15999999999997L361.07982982982986,499.09L361.8305805805806,499L362.58133133133134,499.03L363.3320820820821,498.97999999999996L364.0828328328328,498.97999999999996L364.83358358358356,498.97999999999996L365.58433433433436,498.97999999999996L366.3350850850851,499.03L367.08583583583584,498.95L367.8365865865866,498.91999999999996L368.5873373373373,498.87L369.3380880880881,498.87L370.08883883883885,498.87L370.8395895895896,498.87L371.59034034034033,498.37L372.3410910910911,498.21L373.09184184184187,498.03L373.8425925925926,497.91L374.59334334334335,497.91L375.3440940940941,497.91L376.09484484484483,497.08000000000004L376.8455955955956,496.83L377.59634634634637,496.39L378.34709709709705,495.88L379.09784784784785,495.28L379.8485985985986,495.28L380.5993493493494,495.28L381.3501001001001,494.19L382.1008508508508,493.77L382.8516016016016,493.51L383.60235235235234,493.01L384.35310310310314,492.35L385.1038538538539,492.35L385.85460460460456,492.35L386.60535535535536,491.45L387.3561061061061,490.79L388.10685685685684,490.17L388.85760760760763,489.59999999999997L389.6083583583583,489.45L390.3591091091091,489.45L391.10985985985985,489.45L391.8606106106106,488.29L392.6113613613614,488.11L393.36211211211213,487.18L394.11286286286287,486.86L394.8636136136136,486.53000000000003L395.61436436436435,486.53000000000003L396.36511511511515,486.53000000000003L397.1158658658659,485.71L397.8666166166166,485.45L398.61736736736736,485.65000000000003L399.3681181181181,485.8L400.1188688688689,485.42L400.86961961961964,485.42L401.6203703703703,485.42L402.3711211211211,484.78L403.12187187187186,484.84L403.87262262262266,484.57L404.6233733733734,483.98L405.3741241241241,483.87L406.1248748748749,483.87L406.8756256256256,483.87L407.6263763763764,483.10999999999996L408.37712712712715,482.69L409.12787787787784,482.74L409.87862862862863,482.83L410.6293793793794,482.9L411.3801301301301,482.9L412.1308808808809,482.9L412.8816316316316,482.9L413.6323823823824,483.65999999999997L414.38313313313313,484.02L415.13388388388387,483.38L415.88463463463466,483.24L416.63538538538535,483.24L417.38613613613614,483.24L418.1368868868869,483.48999999999995L418.8876376376376,482.92999999999995L419.6383883883884,481.12L420.3891391391391,481.64L421.1398898898899,481.38L421.89064064064064,481.38L422.6413913913914,481.38L423.3921421421422,481.37L424.1428928928929,481.54999999999995L424.8936436436436,482.6L425.6443943943944,482.47L426.39514514514514,482.4L427.14589589589593,482.4L427.8966466466467,482.4L428.64739739739736,483.23L429.39814814814815,483.26000000000005L430.1488988988989,483.91L430.8996496496497,484.64000000000004L431.65040040040043,485.54999999999995L432.4011511511511,485.54999999999995L433.1519019019019,485.54999999999995L433.90265265265265,486.53000000000003L434.6534034034034,486.29L435.4041541541542,486.53999999999996L436.15490490490487,486.28L436.90565565565566,486.01L437.6564064064064,486.01L438.40715715715714,486.01L439.15790790790794,486.01L439.9086586586586,486.27L440.6594094094094,486.23L441.41016016016016,486.03000000000003L442.1609109109109,485.61L442.9116616616617,485.61L443.6624124124124,485.61L444.4131631631632,486.48999999999995L445.1639139139139,484.36L445.91466466466466,483.87L446.66541541541545,484.04999999999995L447.41616616616614,484.46L448.1669169169169,484.46L448.9176676676677,484.46L449.6684184184184,483.69L450.4191691691692,484.65999999999997L451.1699199199199,484.85L451.92067067067063,484.44L452.6714214214214,484.42L453.42217217217217,484.42L454.17292292292296,484.42L454.9236736736737,484.04999999999995L455.6744244244244,484.27L456.4251751751752,484.47L457.1759259259259,484.14L457.92667667667666,483.65000000000003L458.67742742742746,483.65000000000003L459.42817817817814,483.65000000000003L460.21021021021016,482.25L460.96096096096096,481.83L461.7117117117117,480.84L462.4624624624625,480.84L463.21321321321324,480.53000000000003L463.9639639639639,480.53000000000003L464.7147147147147,480.53000000000003L465.46546546546546,478.27L466.21621621621625,477.51L466.966966966967,475.86L467.7177177177177,474.14L468.4684684684685,471.96L469.2192192192192,471.96L469.96996996996995,471.96L470.72072072072075,470.07L471.47147147147143,469.26L472.22222222222223,468.95L472.97297297297297,468.95L473.7237237237237,470.92L474.4744744744745,470.92L475.2252252252252,470.92L475.975975975976,473.41L476.7267267267267,471.97L477.47747747747746,468.53000000000003L478.22822822822826,464.84000000000003L478.97897897897894,458.90999999999997L479.72972972972974,458.90999999999997L480.4804804804805,458.90999999999997L481.2312312312312,448.90000000000003L481.981981981982,448.88L482.7327327327327,448.59L483.48348348348344,447.47999999999996L484.23423423423424,448.41999999999996L484.984984984985,448.41999999999996L485.7357357357358,448.41999999999996L486.4864864864865,448.40000000000003L487.2372372372372,447.81L487.987987987988,447.49L488.73873873873873,447.13000000000005L489.48948948948953,443.97999999999996L490.24024024024027,443.97999999999996L490.99099099099095,443.97999999999996L491.74174174174175,439.55L492.4924924924925,435.62999999999994L493.2432432432433,428.95L493.993993993994,420.57L494.7447447447447,412.88000000000005L495.4954954954955,412.88000000000005L496.24624624624624,412.88000000000005L496.996996996997,413.68L497.7477477477478,405.31L498.49849849849846,391.96999999999997L499.24924924924926,373.06L500,351.24" stroke="#d95f02" stroke-width="2"/></g><g class="mark-line role-mark layer_2_marks" role="graphics-object" aria-roledescription="line mark container"><path aria-label="date: Mar 2020; RNA copies per mL of wastewater, weekly avg (Northern MWRA region): 0" role="graphics-symbol" aria-roledescription="line mark" d="M3.7224724724724725,498.38461538461536L4.473223223223223,497.61538461538464L5.223973973973974,497.53846153846155L5.974724724724725,497.53846153846155L6.725475475475475,497.61538461538464L7.476226226226226,497.38461538461536L8.226976976976978,497.53846153846155L8.977727727727729,496.69230769230774L9.728478478478477,496.9230769230769L10.47922922922923,496.7692307692308L11.22997997997998,496.7692307692308L11.98073073073073,496.46153846153845L12.731481481481481,496.53846153846155L13.482232232232231,493.0769230769231L14.232982982982984,490.0769230769231L14.983733733733734,485.2307692307692L15.734484484484483,486L16.485235235235233,484.53846153846155L17.235985985985987,484.53846153846155L17.986736736736738,484.53846153846155L18.73748748748749,486.15384615384613L19.48823823823824,488.0769230769231L20.238988988988986,485.61538461538464L20.98973973973974,475.7692307692308L21.74049049049049,472.5384615384615L22.49124124124124,472.5384615384615L23.24199199199199,472.5384615384615L23.99274274274274,464.92307692307696L24.743493493493496,462.3846153846154L25.494244244244246,461.84615384615387L26.244994994994993,455.53846153846155L26.995745745745744,448.9230769230769L27.746496496496494,448.9230769230769L28.49724724724725,448.9230769230769L29.247997997998,448.9230769230769L29.99874874874875,442.9230769230769L30.7494994994995,442.9230769230769L31.50025025025025,463.53846153846155L32.251001001001,466.6923076923077L33.001751751751755,466.6923076923077L33.7525025025025,466.6923076923077L34.503253253253256,466.6923076923077L35.254004004004,473.84615384615387L36.00475475475475,469.4615384615385L36.7555055055055,470.6923076923077L37.50625625625625,469.92307692307696L38.25700700700701,469.92307692307696L39.00775775775776,469.92307692307696L39.75850850850851,469.92307692307696L40.50925925925926,472.6923076923077L41.260010010010014,477.84615384615387L42.01076076076076,477.46153846153845L42.76151151151151,477.46153846153845L43.51226226226226,477.46153846153845L44.26301301301301,487.3076923076923L45.01376376376376,487.3076923076923L45.76451451451452,492.7692307692308L46.51526526526527,495.53846153846155L47.26601601601602,495.53846153846155L48.016766766766764,495.53846153846155L48.76751751751752,495.53846153846155L49.518268268268265,496.46153846153845L50.26901901901902,496.46153846153845L51.019769769769766,498.30769230769226M60.02877877877877,494L60.77952952952953,494.69230769230774L61.53028028028028,495.2307692307692L62.281031031031034,495L63.03178178178179,495.1538461538462L63.782532532532535,496.1538461538462L64.53328328328328,496.38461538461536L65.28403403403404,496.53846153846155L66.03478478478478,496.30769230769226L66.78553553553554,495.7692307692308L67.53628628628628,496.2307692307692L68.28703703703704,496.2307692307692L69.03778778778778,496.30769230769226L69.78853853853855,496.30769230769226L70.53928928928929,496.53846153846155L71.29004004004004,497L72.0407907907908,496.7692307692308L72.79154154154153,496.53846153846155L73.5422922922923,495.69230769230774L74.29304304304304,495.38461538461536L75.0437937937938,494.38461538461536L75.79454454454454,493.38461538461536L76.5452952952953,490.7692307692308L77.29604604604604,491.3076923076923L78.0467967967968,493.38461538461536L78.79754754754754,495.1538461538462L79.54829829829829,495.69230769230774L80.29904904904906,496.9230769230769L81.0497997997998,497.0769230769231L81.80055055055055,497.69230769230774L82.5513013013013,498.2307692307693L83.30205205205206,498.30769230769226L84.0528028028028,498.38461538461536L84.80355355355356,498.69230769230774L85.5543043043043,498.7692307692307L86.30505505505505,498.8461538461538L87.05580580580582,498.8461538461538L87.80655655655656,498.8461538461538L88.55730730730731,498.69230769230774L89.30805805805805,498.53846153846155L90.05880880880882,498.2307692307693L90.80955955955956,498.2307692307693L91.56031031031031,498.38461538461536L92.31106106106105,498.1538461538462L93.06181181181181,498L93.81256256256256,498L94.56331331331332,498.0769230769231L95.31406406406407,498.1538461538462L96.06481481481481,498L96.81556556556556,497.61538461538464L97.56631631631632,497.61538461538464L98.31706706706707,497.69230769230774L99.06781781781781,497.69230769230774L99.81856856856857,497.61538461538464L100.56931931931932,497.53846153846155L101.32007007007007,497.53846153846155L102.07082082082083,497.9230769230769L102.82157157157157,498L103.57232232232232,498.1538461538462L104.32307307307308,498.2307692307693L105.07382382382383,498.2307692307693L105.82457457457457,498.1538461538462L106.57532532532532,498L107.32607607607608,497.7692307692307L108.07682682682683,497.61538461538464L108.82757757757757,497.38461538461536L109.57832832832833,497.46153846153845L110.32907907907908,497.30769230769226L111.07982982982983,497.0769230769231L111.83058058058059,497.1538461538462L112.58133133133133,497L113.33208208208208,495.46153846153845L114.08283283283284,495.69230769230774L114.83358358358359,495L116.33508508508508,495.9230769230769L117.08583583583584,495.9230769230769L117.83658658658659,495.9230769230769L118.58733733733735,496.30769230769226L119.33808808808809,496.30769230769226L120.08883883883884,496L120.83958958958958,495.9230769230769L121.59034034034035,495.7692307692308L122.34109109109109,495.7692307692308L123.09184184184184,495.7692307692308L123.84259259259258,496.30769230769226L124.59334334334335,496.30769230769226L125.34409409409409,495.69230769230774L126.09484484484484,495.69230769230774L126.84559559559561,495.30769230769226L127.59634634634634,495.30769230769226L128.3470970970971,495.30769230769226L129.09784784784785,495.53846153846155L129.84859859859858,495.53846153846155L130.59934934934935,496.30769230769226L131.3501001001001,496.30769230769226L132.10085085085086,496.30769230769226L132.85160160160163,496.30769230769226L133.60235235235234,496.30769230769226L134.3531031031031,495.69230769230774L135.10385385385385,495.69230769230774L135.85460460460462,493.7692307692308L136.60535535535536,493.7692307692308L137.3561061061061,491.7692307692308L138.10685685685687,491.7692307692308L138.8576076076076,491.7692307692308L139.60835835835834,491.9230769230769L140.3591091091091,491.9230769230769L141.10985985985985,494.46153846153845L141.86061061061062,494.69230769230774L142.61136136136136,496L143.3621121121121,496L144.11286286286287,496.0769230769231L144.8636136136136,496.2307692307692L145.61436436436438,496.30769230769226L146.3651151151151,496.2307692307692L147.11586586586586,496.30769230769226L147.86661661661662,496.0769230769231L148.61736736736736,496.30769230769226L149.36811811811813,496.46153846153845L150.11886886886887,496.8461538461538L150.8696196196196,496.8461538461538L151.62037037037038,496.9230769230769L152.37112112112112,497.1538461538462L153.12187187187186,497.46153846153845L153.87262262262263,497.38461538461536L154.62337337337337,497.38461538461536L155.37412412412414,497.0769230769231L156.12487487487488,497.1538461538462L156.87562562562562,497.61538461538464L157.62637637637638,497.61538461538464L158.37712712712712,497.61538461538464L159.1278778778779,497.61538461538464L159.8786286286286,497.61538461538464L160.62937937937937,497.69230769230774L161.38013013013014,497.69230769230774L162.13088088088088,496.53846153846155L162.88163163163165,496.53846153846155L163.63238238238236,495.9230769230769L164.38313313313313,495.9230769230769L165.1338838838839,495.9230769230769L165.88463463463464,495.46153846153845L166.63538538538538,495.46153846153845L167.38613613613614,495.46153846153845L168.13688688688688,495.46153846153845L168.88763763763765,494.46153846153845L169.63838838838836,494.46153846153845L170.38913913913913,492.38461538461536L171.1398898898899,490.61538461538464L171.89064064064064,490.53846153846155L172.6413913913914,489.9230769230769L173.39214214214212,489.9230769230769L174.1428928928929,489.9230769230769L174.89364364364366,489.8461538461538L175.6443943943944,490.9230769230769L177.14589589589588,490.8461538461538L177.89664664664664,489.9230769230769L178.6473973973974,490.3076923076923L179.39814814814815,489.38461538461536L180.1488988988989,489.2307692307692L180.89964964964966,489.0769230769231L181.68168168168168,488.38461538461536L182.43243243243242,486.7692307692308L183.1831831831832,486.84615384615387L183.93393393393393,484.15384615384613L184.6846846846847,484.0769230769231L185.43543543543544,483.15384615384613L186.18618618618618,481L186.93693693693695,480.46153846153845L187.68768768768768,480.2307692307692L188.43843843843842,477.9230769230769L189.1891891891892,478.3076923076923L189.93993993993993,477.07692307692304L190.6906906906907,475.92307692307696L191.44144144144144,476.3846153846154L192.19219219219218,475.2307692307692L192.94294294294295,474.53846153846155L193.6936936936937,475L194.44444444444446,474.3076923076923L195.19519519519517,473.53846153846155L195.94594594594594,472.6923076923077L196.6966966966967,471L197.44744744744744,471.6153846153846L198.1981981981982,470.6923076923077L198.94894894894895,469.6153846153846L199.6996996996997,468.4615384615385L200.45045045045046,466.53846153846155L201.2012012012012,464.84615384615387L201.95195195195194,463.92307692307696L202.7027027027027,458.7692307692308L203.45345345345345,455.6923076923077L204.20420420420422,451.53846153846155L204.95495495495496,447.3076923076923L205.7057057057057,440.0769230769231L206.45645645645646,435.0769230769231L207.2072072072072,428.38461538461536L207.95795795795797,422.0769230769231L208.70870870870868,424L209.45945945945945,427.30769230769226L210.21021021021022,428.2307692307692L210.96096096096096,430.0769230769231L211.7117117117117,429.38461538461536L212.46246246246247,426.61538461538464L213.2132132132132,426.84615384615387L213.96396396396398,439.0769230769231L214.71471471471472,436.0769230769231L215.46546546546546,433.1538461538462L216.21621621621622,434L216.96696696696696,432.69230769230774L217.71771771771773,436.53846153846155L218.46846846846844,440.38461538461536L219.2192192192192,425.0769230769231L219.96996996996998,425.53846153846155L220.72072072072072,426.7692307692308L221.4714714714715,428.30769230769226L222.2222222222222,435.69230769230774L222.97297297297297,432.84615384615387L223.72372372372374,426.61538461538464L224.47447447447448,429.1538461538462L225.22522522522522,423.46153846153845L225.97597597597596,425.7692307692308L226.72672672672672,432.38461538461536L227.4774774774775,436.2307692307692L228.22822822822823,445.61538461538464L228.97897897897897,452.6923076923077L229.72972972972974,451.38461538461536L230.48048048048048,453.46153846153845L231.23123123123125,451.53846153846155L231.98198198198196,443.8461538461538L232.73273273273273,431.9230769230769L233.4834834834835,420.46153846153845L234.23423423423424,413.07692307692304L234.98498498498498,413.38461538461536L235.73573573573572,414.3076923076923L236.48648648648648,415.53846153846155L237.987987987988,425.9230769230769L238.73873873873873,433.0769230769231L239.48948948948947,437.8461538461538L240.24024024024024,437.38461538461536L240.990990990991,444.53846153846155L241.74174174174172,448.15384615384613L242.4924924924925,451.61538461538464L243.24324324324326,449.7692307692308L243.993993993994,448.8461538461538L244.74474474474476,448.53846153846155L245.49549549549548,456.61538461538464L246.24624624624624,457.7692307692308L246.996996996997,459.7692307692308L247.74774774774775,463.84615384615387L248.4984984984985,466.6153846153846L249.24924924924923,469L250,471.3846153846154L250.75075075075077,471.6153846153846L251.50150150150154,472.4615384615385L252.25225225225222,474.4615384615385L253.003003003003,474L253.75375375375376,474.4615384615385L254.50450450450452,475.53846153846155L255.25525525525526,475.07692307692304L256.006006006006,474.6153846153846L256.7567567567567,475.3846153846154L257.5075075075075,473.84615384615387L258.25825825825825,473.92307692307696L259.00900900900905,475.4615384615385L259.75975975975973,475.6153846153846L260.51051051051047,478.7692307692308L261.26126126126127,480.2307692307692L262.012012012012,480.15384615384613L262.7627627627628,479.9230769230769L263.5135135135135,478.53846153846155L264.2642642642642,479.84615384615387L265.015015015015,479.6153846153846L265.76576576576576,476.7692307692308L266.51651651651656,477.3076923076923L267.2672672672673,476.9230769230769L268.018018018018,479.3076923076923L268.7687687687688,483.3846153846154L269.5195195195195,482.6923076923077L270.27027027027026,483.61538461538464L271.02102102102106,484.53846153846155L271.77177177177174,483.9230769230769L272.52252252252254,483.7692307692308L273.2732732732733,482.46153846153845L274.024024024024,480.2307692307692L274.7747747747748,480.9230769230769L275.5255255255255,481.15384615384613L276.2762762762763,480.84615384615387L277.02702702702703,480.84615384615387L277.77777777777777,481.6153846153846L278.52852852852857,483.0769230769231L279.27927927927925,482.53846153846155L280.03003003003005,480.84615384615387L280.7807807807808,480.2307692307692L281.50025025025025,480L282.251001001001,480L283.0017517517517,479.3076923076923L283.7525025025025,476.7692307692308L284.50325325325326,477.84615384615387L285.254004004004,477.6923076923077L286.00475475475474,477.84615384615387L286.7555055055055,478.0769230769231L287.5062562562563,477.2307692307692L288.257007007007,477.46153846153845L289.00775775775776,478.84615384615387L289.7585085085085,479.46153846153845L290.50925925925924,480.0769230769231L292.0107607607608,480.2307692307692L292.7615115115115,481.0769230769231L293.51226226226225,483.2307692307692L294.263013013013,483.53846153846155L295.01376376376373,483.15384615384613L295.76451451451453,484.46153846153845L296.51526526526527,483.0769230769231L297.26601601601607,483.15384615384613L298.01676676676675,482.9230769230769L298.7675175175175,481L299.5182682682683,480.84615384615387L300.269019019019,480.3076923076923L301.0197697697698,478.3076923076923L301.7705205205205,479.2307692307692L302.52127127127125,478.6153846153846L303.27202202202204,479.53846153846155L304.0227727727728,479.3076923076923L304.7735235235235,479.46153846153845L305.52427427427426,480.9230769230769L306.275025025025,481.53846153846155L307.0257757757758,482L307.77652652652654,483.53846153846155L308.5272772772773,484.0769230769231L309.278028028028,485.0769230769231L310.02877877877876,486.61538461538464L310.77952952952955,488.0769230769231L311.5302802802803,489.3076923076923L312.28103103103103,489.7692307692308L313.0317817817818,490L313.7825325325325,490.3076923076923L314.5332832832833,490.9230769230769L315.28403403403405,490.61538461538464L316.0347847847848,490.6923076923077L316.78553553553553,491L317.53628628628627,492.0769230769231L318.287037037037,492.9230769230769L319.0377877877878,493.0769230769231L319.78853853853855,493.30769230769226L320.5392892892893,493.61538461538464L322.04079079079077,493.9230769230769L322.79154154154156,493.7692307692308L323.5422922922923,493.8461538461538L324.29304304304304,494.9230769230769L325.0437937937938,495.1538461538462L325.7945445445445,495.46153846153845L326.5452952952953,495.61538461538464L327.29604604604606,495.8461538461538L328.04679679679674,496.30769230769226L328.79754754754754,496.53846153846155L329.5482982982983,496.46153846153845L330.2990490490491,496.7692307692308L331.0497997997998,496.7692307692308L331.80055055055055,496.8461538461538L332.5513013013013,496.9230769230769L333.30205205205203,497.2307692307692L334.05280280280283,497.2307692307692L334.80355355355357,497.2307692307692L335.5543043043043,497.38461538461536L336.30505505505505,497.7692307692307L337.0558058058058,497.9230769230769L337.8065565565566,498.30769230769226L338.5573073073073,498.2307692307693L339.30805805805807,498.46153846153845L340.0588088088088,498.46153846153845L340.80955955955955,498.38461538461536L341.5603103103103,498.38461538461536L342.3110610610611,498.46153846153845L343.0618118118118,498.1538461538462L343.81256256256256,498.0769230769231L344.5633133133133,497.9230769230769L345.31406406406404,498.1538461538462L346.06481481481484,498.30769230769226L346.8155655655656,498.2307692307693L347.5663163163163,498.0769230769231L348.31706706706706,498.0769230769231L349.0678178178178,498.1538461538462L349.8185685685686,498.38461538461536L350.56931931931933,498.46153846153845L351.3200700700701,498.53846153846155L352.0708208208208,498.61538461538464L352.82157157157155,498.8461538461538L353.57232232232235,499L354.3230730730731,499L355.0738238238238,498.9230769230769L355.82457457457457,498.8461538461538L356.5753253253253,498.7692307692307L357.3260760760761,498.69230769230774L358.07682682682685,498.53846153846155L358.82757757757753,498.46153846153845L359.5783283283283,498.46153846153845L360.32907907907907,498.2307692307693L361.07982982982986,497.9230769230769L362.58133133133134,498L363.3320820820821,497.9230769230769L364.0828328328328,497.61538461538464L364.83358358358356,497L365.58433433433436,497.2307692307692L366.3350850850851,497.53846153846155L367.08583583583584,497.30769230769226L367.8365865865866,496.9230769230769L368.5873373373373,496.61538461538464L369.3380880880881,496.38461538461536L370.08883883883885,496.46153846153845L370.8395895895896,495.8461538461538L371.59034034034033,497.0769230769231L372.3410910910911,496.61538461538464L373.09184184184187,496.53846153846155L373.8425925925926,496.53846153846155L374.59334334334335,496.61538461538464L375.3440940940941,496.2307692307692L376.09484484484483,495.8461538461538L376.8455955955956,492.7692307692308L377.59634634634637,492.2307692307692L378.34709709709705,491.2307692307692L379.09784784784785,490L379.8485985985986,488.53846153846155L380.5993493493494,487.2307692307692L381.3501001001001,486.3076923076923L382.1008508508508,485.61538461538464L382.8516016016016,484.46153846153845L383.60235235235234,483.61538461538464L384.35310310310314,483.84615384615387L385.1038538538539,484.0769230769231L385.85460460460456,484.3076923076923L386.60535535535536,484.7692307692308L387.3561061061061,484.9230769230769L388.10685685685684,486.2307692307692L388.85760760760763,486.6923076923077L389.6083583583583,486.6923076923077L390.3591091091091,483.2307692307692L391.10985985985985,480.46153846153845L391.8606106106106,476.84615384615387L392.6113613613614,474.6153846153846L393.36211211211213,472.6923076923077L394.11286286286287,466.3846153846154L394.8636136136136,462.84615384615387L395.61436436436435,465.92307692307696L396.36511511511515,469.4615384615385L397.1158658658659,472.6153846153846L397.8666166166166,472.5384615384615L398.61736736736736,472.6923076923077L399.3681181181181,476.6923076923077L400.1188688688689,477.2307692307692L400.86961961961964,475L401.6203703703703,474.84615384615387L402.3711211211211,475.84615384615387L403.12187187187186,476.3076923076923L403.87262262262266,474.4615384615385L404.6233733733734,472.4615384615385L405.3741241241241,471.15384615384613L406.1248748748749,473.3076923076923L406.8756256256256,473.3846153846154L407.6263763763764,472.4615384615385L408.37712712712715,471.7692307692308L409.12787787787784,475L409.87862862862863,477.07692307692304L410.6293793793794,478.0769230769231L411.3801301301301,479.3846153846154L412.1308808808809,480.0769230769231L412.8816316316316,480.46153846153845L413.6323823823824,481.6923076923077L414.38313313313313,481.6153846153846L415.13388388388387,482.0769230769231L415.88463463463466,485.7692307692308L416.63538538538535,486.46153846153845L417.38613613613614,486.61538461538464L418.1368868868869,488L418.8876376376376,485.9230769230769L419.6383883883884,484.53846153846155L420.3891391391391,481.9230769230769L421.1398898898899,475.92307692307696L421.89064064064064,471.7692307692308L423.3921421421422,465.3076923076923L424.1428928928929,469.7692307692308L424.8936436436436,472L425.6443943943944,475.07692307692304L426.39514514514514,478.3076923076923L427.14589589589593,479L427.8966466466467,480.6923076923077L428.64739739739736,480.7692307692308L429.39814814814815,480.6153846153846L430.1488988988989,479.6923076923077L430.8996496496497,477.2307692307692L431.65040040040043,475.3076923076923L432.4011511511511,476L433.1519019019019,474L433.90265265265265,473.7692307692308L434.6534034034034,472.5384615384615L435.4041541541542,474L436.15490490490487,476.15384615384613L436.90565565565566,475.4615384615385L437.6564064064064,476.07692307692304L438.40715715715714,476.07692307692304L439.15790790790794,475.84615384615387L439.9086586586586,477.6923076923077L440.6594094094094,477.6153846153846L441.41016016016016,478.3076923076923L442.1609109109109,479.9230769230769L442.9116616616617,481.3076923076923L443.6624124124124,483.9230769230769L444.4131631631632,485.61538461538464L445.1639139139139,485.84615384615387L445.91466466466466,484.9230769230769L446.66541541541545,483.7692307692308L447.41616616616614,482.9230769230769L448.1669169169169,480.6923076923077L448.9176676676677,476.6153846153846L449.6684184184184,474.4615384615385L450.4191691691692,473.6153846153846L451.1699199199199,473.3846153846154L451.92067067067063,472.3846153846154L452.6714214214214,470.4615384615385L453.42217217217217,473.3076923076923L454.17292292292296,478.53846153846155L454.9236736736737,478L455.6744244244244,476.15384615384613L456.4251751751752,474.3076923076923L457.1759259259259,473.6923076923077L457.92667667667666,474.07692307692304L458.67742742742746,472.3076923076923L459.42817817817814,468.07692307692304L460.21021021021016,468.5384615384615L460.96096096096096,470.3076923076923L461.7117117117117,470.15384615384613L462.4624624624625,472.6923076923077L463.21321321321324,472.4615384615385L463.9639639639639,469.3076923076923L464.7147147147147,464.92307692307696L465.46546546546546,459.6153846153846L466.21621621621625,457.15384615384613L466.966966966967,454.7692307692308L467.7177177177177,447L468.4684684684685,449.7692307692308L469.2192192192192,451.7692307692308L469.96996996996995,452.46153846153845L470.72072072072075,456.6923076923077L471.47147147147143,453.15384615384613L472.22222222222223,452.3076923076923L472.97297297297297,451.9230769230769L473.7237237237237,451.53846153846155L474.4744744744745,447.3076923076923L475.2252252252252,445.2307692307692L475.975975975976,437.9230769230769L476.7267267267267,433.53846153846155L477.47747747747746,428.53846153846155L478.22822822822826,426.1538461538462L478.97897897897894,417.15384615384613L479.72972972972974,414.3076923076923L480.4804804804805,404.6153846153846L481.2312312312312,404.3076923076923L481.981981981982,405.3846153846154L482.7327327327327,409.2307692307692L484.23423423423424,404.84615384615387L484.984984984985,403.3846153846154L485.7357357357358,411.3846153846154L486.4864864864865,400.15384615384613L487.2372372372372,405.3846153846154L487.987987987988,404.3846153846154L488.73873873873873,397.84615384615387L489.48948948948953,387.53846153846155L490.24024024024027,382L490.99099099099095,369.46153846153845L491.74174174174175,370.53846153846155L492.4924924924925,350.3846153846154L493.2432432432433,336.2307692307692L493.993993993994,314.53846153846155L494.7447447447447,292.6153846153846L495.4954954954955,254.61538461538458L496.24624624624624,225.99999999999997L496.996996996997,168.6153846153846L497.7477477477478,84.69230769230768L498.49849849849846,13.69230769230767" stroke="#1b9e77" stroke-width="2"/></g></g><path class="foreground" aria-hidden="true" d="" display="none"/></g></g></g></svg>