<svg xmlns="http://www.w3.org/2000/svg" xmlns:xlink="http://www.w3.org/1999/xlink" version="1.1" class="marks" width="605" height="566" viewBox="0 0 605 566"><rect width="605" height="566" fill="white"/><g fill="none" stroke-miterlimit="10" transform="translate(48,10)"><g class="mark-group role-frame root" role="graphics-object" aria-roledescription="group mark container"><g transform="translate(0,0)"><path class="background" aria-hidden="true" d="M0.5,0.5h500v500h-500Z" stroke="#ddd"/><g><g class="mark-group role-axis" aria-hidden="true"><g transform="translate(0.5,500.5)"><path class="background" aria-hidden="true" d="M0,0h0v0h0Z" pointer-events="none"/><g><g class="mark-rule role-axis-grid" pointer-events="none"><line transform="translate(20,-500)" x2="0" y2="500" stroke="#ddd" stroke-width="1" opacity="1"/><line transform="translate(43,-500)" x2="0" y2="500" stroke="#ddd" stroke-width="1" opacity="1"/><line transform="translate(66,-500)" x2="0" y2="500" stroke="#ddd" stroke-width="1" opacity="1"/><line transform="translate(89,-500)" x2="0" y2="500" stroke="#ddd" stroke-width="1" opacity="1"/><line transform="translate(112,-500)" x2="0" y2="500" stroke="#ddd" stroke-width="1" opacity="1"/><line transform="translate(135,-500)" x2="0" y2="500" stroke="#ddd" stroke-width="1" opacity="1"/><line transform="translate(158,-500)" x2="0" y2="500" stroke="#ddd" stroke-width="1" opacity="1"/><line transform="translate(181,-500)" x2="0" y2="500" stroke="#ddd" stroke-width="1" opacity="1"/><line transform="translate(204,-500)" x2="0" y2="500" stroke="#ddd" stroke-width="1" opacity="1"/><line transform="translate(227,-500)" x2="0" y2="500" stroke="#ddd" stroke-width="1" opacity="1"/><line transform="translate(250,-500)" x2="0" y2="500" stroke="#ddd" stroke-width="1" opacity="1"/><line transform="translate(271,-500)" x2="0" y2="500" stroke="#ddd" stroke-width="1" opacity="1"/><line transform="translate(295,-500)" x2="0" y2="500" stroke="#ddd" stroke-width="1" opacity="1"/><line transform="translate(317,-500)" x2="0" y2="500" stroke="#ddd" stroke-width="1" opacity="1"/><line transform="translate(341,-500)" x2="0" y2="500" stroke="#ddd" stroke-width="1" opacity="1"/><line transform="translate(363,-500)" x2="0" y2="500" stroke="#ddd" stroke-width="1" opacity="1"/><line transform="translate(386,-500)" x2="0" y2="500" stroke="#ddd" stroke-width="1" opacity="1"/><line transform="translate(410,-500)" x2="0" y2="500" stroke="#ddd" stroke-width="1" opacity="1"/><line transform="translate(432,-500)" x2="0" y2="500" stroke="#ddd" stroke-width="1" opacity="1"/><line transform="translate(456,-500)" x2="0" y2="500" stroke="#ddd" stroke-width="1" opacity="1"/><line transform="translate(478,-500)" x2="0" y2="500" stroke="#ddd" stroke-width="1" opacity="1"/></g></g><path class="foreground" aria-hidden="true" d="" pointer-events="none" display="none"/></g></g><g class="mark-group role-axis" role="graphics-symbol" aria-roledescription="axis" aria-label="X-axis for a time scale with values from March 2020 to December 2021"><g transform="translate(0.5,500.5)"><path class="background" aria-hidden="true" d="M0,0h0v0h0Z" pointer-events="none"/><g><g class="mark-rule role-axis-tick" pointer-events="none"><line transform="translate(20,0)" x2="0" y2="5" stroke="#888" stroke-width="1" opacity="1"/><line transform="translate(43,0)" x2="0" y2="5" stroke="#888" stroke-width="1" opacity="1"/><line transform="translate(66,0)" x2="0" y2="5" stroke="#888" stroke-width="1" opacity="1"/><line transform="translate(89,0)" x2="0" y2="5" stroke="#888" stroke-width="1" opacity="1"/><line transform="translate(112,0)" x2="0" y2="5" stroke="#888" stroke-width="1" opacity="1"/><line transform="translate(135,0)" x2="0" y2="5" stroke="#888" stroke-width="1" opacity="1"/><line transform="translate(158,0)" x2="0" y2="5" stroke="#888" stroke-width="1" opacity="1"/><line transform="translate(181,0)" x2="0" y2="5" stroke="#888" stroke-width="1" opacity="1"/><line transform="translate(204,0)" x2="0" y2="5" stroke="#888" stroke-width="1" opacity="1"/><line transform="translate(227,0)" x2="0" y2="5" stroke="#888" stroke-width="1" opacity="1"/><line transform="translate(250,0)" x2="0" y2="5" stroke="#888" stroke-width="1" opacity="1"/><line transform="translate(271,0)" x2="0" y2="5" stroke="#888" stroke-width="1" opacity="1"/><line transform="translate(295,0)" x2="0" y2="5" stroke="#888" stroke-width="1" opacity="1"/><line transform="translate(317,0)" x2="0" y2="5" stroke="#888" stroke-width="1" opacity="1"/><line transform="translate(341,0)" x2="0" y2="5" stroke="#888" stroke-width="1" opacity="1"/><line transform="translate(363,0)" x2="0" y2="5" stroke="#888" stroke-width="1" opacity="1"/><line transform="translate(386,0)" x2="0" y2="5" stroke="#888" stroke-width="1" opacity="1"/><line transform="translate(410,0)" x2="0" y2="5" stroke="#888" stroke-width="1" opacity="1"/><line transform="translate(432,0)" x2="0" y2="5" stroke="#888" stroke-width="1" opacity="1"/><line transform="translate(456,0)" x2="0" y2="5" stroke="#888" stroke-width="1" opacity="1"/><line transform="translate(478,0)" x2="0" y2="5" stroke="#888" stroke-width="1" opacity="1"/></g><g class="mark-text role-axis-label" pointer-events="none"><text text-anchor="end" transform="translate(20.26942355889724,7) rotate(-90) translate(0,3)" font-family="sans-serif" font-size="10px" fill="#000" opacity="1">Apr 2020</text><text text-anchor="end" transform="translate(42.82581453634085,7) rotate(-90) translate(0,3)" font-family="sans-serif" font-size="10px" fill="#000" opacity="1">May 2020</text><text text-anchor="end" transform="translate(66.13408521303259,7) rotate(-90) translate(0,3)" font-family="sans-serif" font-size="10px" fill="#000" opacity="1">Jun 2020</text><text text-anchor="end" transform="translate(88.69047619047619,7) rotate(-90) translate(0,3)" font-family="sans-serif" font-size="10px" fill="#000" opacity="1">Jul 2020</text><text text-anchor="end" transform="translate(111.99874686716792,7) rotate(-90) translate(0,3)" font-family="sans-serif" font-size="10px" fill="#000" opacity="1">Aug 2020</text><text text-anchor="end" transform="translate(135.30701754385964,7) rotate(-90) translate(0,3)" font-family="sans-serif" font-size="10px" fill="#000" opacity="1">Sep 2020</text><text text-anchor="end" transform="translate(157.86340852130326,7) rotate(-90) translate(0,3)" font-family="sans-serif" font-size="10px" fill="#000" opacity="1">Oct 2020</text><text text-anchor="end" transform="translate(181.171679197995,7) rotate(-90) translate(0,3)" font-family="sans-serif" font-size="10px" fill="#000" opacity="1">Nov 2020</text><text text-anchor="end" transform="translate(203.7593984962406,7) rotate(-90) translate(0,3)" font-family="sans-serif" font-size="10px" fill="#000" opacity="1">Dec 2020</text><text text-anchor="end" transform="translate(227.06766917293234,7) rotate(-90) translate(0,3)" font-family="sans-serif" font-size="10px" fill="#000" opacity="1">Jan 2021</text><text text-anchor="end" transform="translate(250.37593984962407,7) rotate(-90) translate(0,3)" font-family="sans-serif" font-size="10px" fill="#000" opacity="1">Feb 2021</text><text text-anchor="end" transform="translate(271.4285714285714,7) rotate(-90) translate(0,3)" font-family="sans-serif" font-size="10px" fill="#000" opacity="1">Mar 2021</text><text text-anchor="end" transform="translate(294.7055137844611,7) rotate(-90) translate(0,3)" font-family="sans-serif" font-size="10px" fill="#000" opacity="1">Apr 2021</text><text text-anchor="end" transform="translate(317.26190476190476,7) rotate(-90) translate(0,3)" font-family="sans-serif" font-size="10px" fill="#000" opacity="1">May 2021</text><text text-anchor="end" transform="translate(340.5701754385965,7) rotate(-90) translate(0,3)" font-family="sans-serif" font-size="10px" fill="#000" opacity="1">Jun 2021</text><text text-anchor="end" transform="translate(363.1265664160401,7) rotate(-90) translate(0,3)" font-family="sans-serif" font-size="10px" fill="#000" opacity="1">Jul 2021</text><text text-anchor="end" transform="translate(386.43483709273187,7) rotate(-90) translate(0,3)" font-family="sans-serif" font-size="10px" fill="#000" opacity="1">Aug 2021</text><text text-anchor="end" transform="translate(409.7431077694236,7) rotate(-90) translate(0,3)" font-family="sans-serif" font-size="10px" fill="#000" opacity="1">Sep 2021</text><text text-anchor="end" transform="translate(432.2994987468672,7) rotate(-90) translate(0,3)" font-family="sans-serif" font-size="10px" fill="#000" opacity="1">Oct 2021</text><text text-anchor="end" transform="translate(455.6077694235589,7) rotate(-90) translate(0,3)" font-family="sans-serif" font-size="10px" fill="#000" opacity="1">Nov 2021</text><text text-anchor="end" transform="translate(478.1954887218045,7) rotate(-90) translate(0,3)" font-family="sans-serif" font-size="10px" fill="#000" opacity="1">Dec 2021</text></g><g class="mark-rule role-axis-domain" pointer-events="none"><line transform="translate(0,0)" x2="500" y2="0" stroke="#888" stroke-width="1" opacity="1"/></g></g><path class="foreground" aria-hidden="true" d="" pointer-events="none" display="none"/></g></g><g class="mark-group role-axis" role="graphics-symbol" aria-roledescription="axis" aria-label="Y-axis titled 'Reported cases per 100k, weekly avg (Middlesex, MA)' for a linear scale with values from 0 to 500"><g transform="translate(0.5,0.5)"><path class="background" aria-hidden="true" d="M0,0h0v0h0Z" pointer-events="none"/><g><g class="mark-rule role-axis-tick" pointer-events="none"><line transform="translate(0,500)" x2="-5" y2="0" stroke="#d95f02" stroke-width="1" opacity="1"/><line transform="translate(0,450)" x2="-5" y2="0" stroke="#d95f02" stroke-width="1" opacity="1"/><line transform="translate(0,400)" x2="-5" y2="0" stroke="#d95f02" stroke-width="1" opacity="1"/><line transform="translate(0,350)" x2="-5" y2="0" stroke="#d95f02" stroke-width="1" opacity="1"/><line transform="translate(0,300)" x2="-5" y2="0" stroke="#d95f02" stroke-width="1" opacity="1"/><line transform="translate(0,250)" x2="-5" y2="0" stroke="#d95f02" stroke-width="1" opacity="1"/><line transform="translate(0,200)" x2="-5" y2="0" stroke="#d95f02" stroke-width="1" opacity="1"/><line transform="translate(0,150)" x2="-5" y2="0" stroke="#d95f02" stroke-width="1" opacity="1"/><line transform="translate(0,100)" x2="-5" y2="0" stroke="#d95f02" stroke-width="1" opacity="1"/><line transform="translate(0,50)" x2="-5" y2="0" stroke="#d95f02" stroke-width="1" opacity="1"/><line transform="translate(0,0)" x2="-5" y2="0" stroke="#d95f02" stroke-width="1" opacity="1"/></g><g class="mark-text role-axis-label" pointer-events="none"><text text-anchor="end" transform="translate(-7,503)" font-family="sans-serif" font-size="10px" fill="#d95f02" opacity="1">0</text><text text-anchor="end" transform="translate(-7,453)" font-family="sans-serif" font-size="10px" fill="#d95f02" opacity="1">50</text><text text-anchor="end" transform="translate(-7,403)" font-family="sans-serif" font-size="10px" fill="#d95f02" opacity="1">100</text><text text-anchor="end" transform="translate(-7,353)" font-family="sans-serif" font-size="10px" fill="#d95f02" opacity="1">150</text><text text-anchor="end" transform="translate(-7,303)" font-family="sans-serif" font-size="10px" fill="#d95f02" opacity="1">200</text><text text-anchor="end" transform="translate(-7,253)" font-family="sans-serif" font-size="10px" fill="#d95f02" opacity="1">250</text><text text-anchor="end" transform="translate(-7,203)" font-family="sans-serif" font-size="10px" fill="#d95f02" opacity="1">300</text><text text-anchor="end" transform="translate(-7,153.00000000000003)" font-family="sans-serif" font-size="10px" fill="#d95f02" opacity="1">350</text><text text-anchor="end" transform="translate(-7,102.99999999999997)" font-family="sans-serif" font-size="10px" fill="#d95f02" opacity="1">400</text><text text-anchor="end" transform="translate(-7,52.999999999999986)" font-family="sans-serif" font-size="10px" fill="#d95f02" opacity="1">450</text><text text-anchor="end" transform="translate(-7,3)" font-family="sans-serif" font-size="10px" fill="#d95f02" opacity="1">500</text></g><g class="mark-rule role-axis-domain" pointer-events="none"><line transform="translate(0,500)" x2="0" y2="-500" stroke="#d95f02" stroke-width="1" opacity="1"/></g><g class="mark-text role-axis-title" pointer-events="none"><text text-anchor="middle" transform="translate(-27.6845703125,250) rotate(-90) translate(0,-3)" font-family="sans-serif" font-size="15px" font-weight="normal" fill="#d95f02" opacity="1">Reported cases per 100k, weekly avg (Middlesex, MA)</text></g></g><path class="foreground" aria-hidden="true" d="" pointer-events="none" display="none"/></g></g><g class="mark-group role-axis" role="graphics-symbol" aria-roledescription="axis" aria-label="Y-axis titled 'RNA copies per mL of wastewater, weekly avg (Northern MWRA region)' for a linear scale with values from 0 to 6,500"><g transform="translate(500.5,0.5)"><path class="background" aria-hidden="true" d="M0,0h0v0h0Z" pointer-events="none"/><g><g class="mark-rule role-axis-tick" pointer-events="none"><line transform="translate(0,500)" x2="5" y2="0" stroke="#1b9e77" stroke-width="1" opacity="1"/><line transform="translate(0,462)" x2="5" y2="0" stroke="#1b9e77" stroke-width="1" opacity="1"/><line transform="translate(0,423)" x2="5" y2="0" stroke="#1b9e77" stroke-width="1" opacity="1"/><line transform="translate(0,385)" x2="5" y2="0" stroke="#1b9e77" stroke-width="1" opacity="1"/><line transform="translate(0,346)" x2="5" y2="0" stroke="#1b9e77" stroke-width="1" opacity="1"/><line transform="translate(0,308)" x2="5" y2="0" stroke="#1b9e77" stroke-width="1" opacity="1"/><line transform="translate(0,269)" x2="5" y2="0" stroke="#1b9e77" stroke-width="1" opacity="1"/><line transform="translate(0,231)" x2="5" y2="0" stroke="#1b9e77" stroke-width="1" opacity="1"/><line transform="translate(0,192)" x2="5" y2="0" stroke="#1b9e77" stroke-width="1" opacity="1"/><line transform="translate(0,154)" x2="5" y2="0" stroke="#1b9e77" stroke-width="1" opacity="1"/><line transform="translate(0,115)" x2="5" y2="0" stroke="#1b9e77" stroke-width="1" opacity="1"/><line transform="translate(0,77)" x2="5" y2="0" stroke="#1b9e77" stroke-width="1" opacity="1"/><line transform="translate(0,38)" x2="5" y2="0" stroke="#1b9e77" stroke-width="1" opacity="1"/><line transform="translate(0,0)" x2="5" y2="0" stroke="#1b9e77" stroke-width="1" opacity="1"/></g><g class="mark-text role-axis-label" pointer-events="none"><text text-anchor="start" transform="translate(7,503)" font-family="sans-serif" font-size="10px" fill="#1b9e77" opacity="1">0</text><text text-anchor="start" transform="translate(7,464.53846153846155)" font-family="sans-serif" font-size="10px" fill="#1b9e77" opacity="1">500</text><text text-anchor="start" transform="translate(7,426.0769230769231)" font-family="sans-serif" font-size="10px" fill="#1b9e77" opacity="1">1,000</text><text text-anchor="start" transform="translate(7,387.6153846153846)" font-family="sans-serif" font-size="10px" fill="#1b9e77" opacity="1">1,500</text><text text-anchor="start" transform="translate(7,349.15384615384613)" font-family="sans-serif" font-size="10px" fill="#1b9e77" opacity="1">2,000</text><text text-anchor="start" transform="translate(7,310.69230769230774)" font-family="sans-serif" font-size="10px" fill="#1b9e77" opacity="1">2,500</text><text text-anchor="start" transform="translate(7,272.2307692307692)" font-family="sans-serif" font-size="10px" fill="#1b9e77" opacity="1">3,000</text><text text-anchor="start" transform="translate(7,233.76923076923077)" font-family="sans-serif" font-size="10px" fill="#1b9e77" opacity="1">3,500</text><text text-anchor="start" transform="translate(7,195.3076923076923)" font-family="sans-serif" font-size="10px" fill="#1b9e77" opacity="1">4,000</text><text text-anchor="start" transform="translate(7,156.84615384615387)" font-family="sans-serif" font-size="10px" fill="#1b9e77" opacity="1">4,500</text><text text-anchor="start" transform="translate(7,118.38461538461536)" font-family="sans-serif" font-size="10px" fill="#1b9e77" opacity="1">5,000</text><text text-anchor="start" transform="translate(7,79.92307692307693)" font-family="sans-serif" font-size="10px" fill="#1b9e77" opacity="1">5,500</text><text text-anchor="start" transform="translate(7,41.46153846153844)" font-family="sans-serif" font-size="10px" fill="#1b9e77" opacity="1">6,000</text><text text-anchor="start" transform="translate(7,3)" font-family="sans-serif" font-size="10px" fill="#1b9e77" opacity="1">6,500</text></g><g class="mark-rule role-axis-domain" pointer-events="none"><line transform="translate(0,500)" x2="0" y2="-500" stroke="#1b9e77" stroke-width="1" opacity="1"/></g><g class="mark-text role-axis-title" pointer-events="none"><text text-anchor="middle" transform="translate(36.0244140625,250) rotate(90) translate(0,-3)" font-family="sans-serif" font-size="15px" font-weight="normal" fill="#1b9e77" opacity="1">RNA copies per mL of wastewater, weekly avg (Northern MWRA region)</text></g></g><path class="foreground" aria-hidden="true" d="" pointer-events="none" display="none"/></g></g><g class="mark-line role-mark layer_0_marks" role="graphics-object" aria-roledescription="line mark container"><path aria-label="date: Mar 2020; Reported cases per 100k, weekly avg (Middlesex, MA): 0.01" role="graphics-symbol" aria-roledescription="line mark" d="M0,499.99L0.7518796992481204,499.99L1.5037593984962407,499.96000000000004L2.255639097744361,499.91L2.976190476190476,499.87L3.7280701754385963,499.64L4.479949874686716,499.64L5.231829573934838,499.57L5.983709273182957,499.53999999999996L6.735588972431077,499.47L7.487468671679198,499.41999999999996L8.239348370927319,499.40000000000003L8.991228070175438,499.57L9.743107769423558,499.53999999999996L10.49498746867168,499.38L11.2468671679198,499.26L11.99874686716792,499.01L12.75062656641604,498.90000000000003L13.50250626566416,498.68L14.254385964912279,498.09L15.006265664160402,496.93L15.75814536340852,496.29L16.51002506265664,495.2L17.261904761904763,494.11L18.01378446115288,493.07L18.765664160401002,491.94L19.517543859649123,490.82L20.26942355889724,489.92999999999995L21.021303258145366,488.19L21.773182957393484,486.54999999999995L22.525062656641605,485.59000000000003L23.276942355889727,485.37L24.028822055137844,483.97L24.780701754385966,483.63L25.532581453634084,482.6L26.284461152882205,480.71999999999997L27.036340852130326,480.1L27.788220551378444,478.69L28.540100250626566,473.16L29.291979949874683,473.12L30.04385964912281,472.81L30.79573934837093,472.2L31.547619047619047,471.98L32.299498746867165,470.78L33.05137844611529,469.64L33.80325814536341,472.72999999999996L34.55513784461153,471.02L35.30701754385965,470.16L36.05889724310777,469.75L36.81077694235589,468.82L37.562656641604015,465.1L38.31453634085213,464.93L39.06641604010025,465.33000000000004L39.81829573934837,467.2L40.57017543859649,466.34999999999997L41.322055137844615,467.16L42.07393483709273,469.12L42.82581453634085,474.06L43.57769423558897,475.22999999999996L44.32957393483709,475.87L45.081453634085214,475.15000000000003L45.83333333333333,477.28L46.58521303258145,477.59000000000003L47.33709273182957,478.12L48.08897243107769,478.65999999999997L48.840852130325814,479.98L49.59273182957393,480.33L50.34461152882205,482.12L51.09649122807018,482.51L51.8483709273183,483.39L52.60025062656642,484.89L53.35213032581454,485.21L54.10401002506266,486.03000000000003L54.85588972431078,486.35L55.6077694235589,486.08L56.35964912280702,486.25L57.11152882205514,486.64000000000004L57.863408521303256,486.27L58.61528822055138,487.57L59.3671679197995,488.03999999999996L60.11904761904762,488.41L60.87092731829574,489.42L61.622807017543856,490.28L62.37468671679198,491.15L63.1265664160401,491.78L63.87844611528821,492.14000000000004L64.63032581453635,492.09000000000003L65.38220551378446,492.47L66.13408521303259,485.06L66.8859649122807,484.98L67.63784461152882,484.96L68.38972431077694,485.57L69.14160401002506,485.71999999999997L69.89348370927318,486.15000000000003L70.6453634085213,487L71.39724310776941,494.79L72.14912280701755,495.13L72.90100250626566,495.69L73.65288220551379,495.47L74.4047619047619,495.64000000000004L75.15664160401002,495.83L75.90852130325814,496.09L76.66040100250626,496.32L77.4122807017544,496.24L78.1641604010025,495.95L78.91604010025063,496.36L79.66791979949875,496.55L80.41979949874687,496.56L81.17167919799499,496.64000000000004L81.92355889724311,496.61L82.67543859649122,496.65L83.42731829573935,496.89L84.17919799498746,497.03999999999996L84.9310776942356,497.15L85.6829573934837,497.21L86.43483709273183,496.97999999999996L87.18671679197995,497.01L87.93859649122807,497.21L88.69047619047619,497.33L89.44235588972431,497.36L90.19423558897243,497.37L90.94611528822055,497.73L91.69799498746866,497.89L92.4498746867168,497.81L93.2017543859649,497.51L93.95363408521304,497.32L94.70551378446116,497.26L95.45739348370927,497.39L96.2092731829574,497.15L96.96115288220551,497.07L97.71303258145365,496.96000000000004L98.46491228070175,496.84000000000003L99.21679197994987,496.88L99.968671679198,497.01L100.72055137844612,496.8L101.47243107769424,496.69L102.22431077694236,496.43L102.97619047619047,496.26L103.7280701754386,496.36L104.47994987468671,496.17L105.23182957393485,496.12L105.98370927318295,495.99L106.73558897243107,496.09L107.4874686716792,496.03999999999996L108.23934837092732,496.12L108.99122807017544,496.29L109.74310776942356,496L110.49498746867167,495.62L111.2468671679198,495.43L111.99874686716792,495.12L112.75062656641605,495.03000000000003L113.50250626566417,495.25L114.25438596491227,494.7L115.00626566416041,494.91L115.75814536340852,495.21999999999997L116.51002506265665,495.14000000000004L117.26190476190476,495.18L118.01378446115288,495.34L118.765664160401,495.23L119.51754385964912,495.23L120.26942355889724,495.23L121.02130325814537,495.23L121.77318295739347,495.23L122.52506265664161,495.23L123.27694235588972,495.23L124.02882205513785,495.23L124.78070175438596,500L125.53258145363408,497.07L126.28446115288219,496.55L127.03634085213034,495.89L127.78822055137844,495.65L128.54010025062655,495.65L129.29197994987467,494.74L130.0438596491228,493.95L130.79573934837094,496.45L131.54761904761907,496.25L132.29949874686716,496.15L133.05137844611528,495.51L133.8032581453634,495.82L134.55513784461155,495.51L135.30701754385964,495.71L136.05889724310777,495.71L136.8107769423559,495.39L137.562656641604,495.55L138.31453634085213,495.68L139.06641604010025,495.83L139.81829573934837,495.76L140.5701754385965,496.03000000000003L141.3220551378446,496.14000000000004L142.07393483709274,496.14000000000004L142.82581453634086,495.90000000000003L143.57769423558898,495.49L144.32957393483707,495.83L145.0814536340852,495.62L145.83333333333334,495.46000000000004L146.58521303258146,495.25L147.33709273182959,495.23L148.08897243107768,495.36L148.8408521303258,495.51L149.59273182957395,495.12L150.34461152882207,495.23L151.09649122807016,495.43L151.84837092731829,495.03999999999996L152.6002506265664,495.17L153.35213032581456,495.05L154.10401002506265,495.06L154.85588972431077,494.61L155.6077694235589,494.61L156.359649122807,493.91L157.11152882205513,493.96000000000004L157.86340852130326,493.21999999999997L158.61528822055138,492.39L159.3671679197995,492.02000000000004L160.1190476190476,492L160.87092731829574,491.88L161.62280701754386,492.15999999999997L162.37468671679198,491.94L163.1265664160401,492.39L163.87844611528823,492.59999999999997L164.63032581453635,492.77L165.38220551378447,492.8L166.1340852130326,491.86999999999995L166.88596491228068,491.44L167.63784461152883,491.78L168.38972431077696,491.59L169.14160401002508,491.74L169.89348370927317,491.77L170.6453634085213,491.75L171.39724310776944,491.52000000000004L172.14912280701756,491.06L172.90100250626566,490.76L173.65288220551378,490.52000000000004L174.4047619047619,490.21999999999997L175.15664160401005,489.48L175.90852130325814,488.73L176.66040100250626,489.20000000000005L177.41228070175438,489.12L178.1641604010025,488.42L178.91604010025063,487.95L179.66791979949875,487.02L180.41979949874687,486.48L181.171679197995,486.48999999999995L181.95488721804512,486.65000000000003L182.70676691729324,486.48L183.45864661654136,485.43L184.21052631578945,484.41L184.9624060150376,483.63L185.71428571428572,482.02L186.46616541353384,480.52L187.21804511278194,479.88L187.96992481203006,478.75L188.7218045112782,477.21000000000004L189.47368421052633,475.39L190.22556390977445,473.66999999999996L190.97744360902254,472.82L191.72932330827066,471.04L192.48120300751881,469.28000000000003L193.23308270676694,468.08L193.98496240601503,467.71000000000004L194.73684210526315,467.39L195.48872180451127,468.38L196.24060150375942,466.92L196.99248120300751,466.56L197.74436090225564,466.37L198.49624060150376,466.8L199.24812030075188,465.68L200,465.68L200.75187969924812,465.46L201.50375939849624,464.72999999999996L202.25563909774436,464.96L203.00751879699246,466.38L203.7593984962406,465.60999999999996L204.51127819548873,463.37L205.26315789473685,458.44L206.01503759398494,450.96999999999997L206.76691729323306,447.29L207.5187969924812,443.51L208.27067669172934,441.41999999999996L209.02255639097746,439.95L209.77443609022555,437.87L210.52631578947367,439.11L211.27819548872182,440.24L212.03007518796994,441.17L212.78195488721803,440.32L213.53383458646616,437.99L214.28571428571428,437.03999999999996L215.03759398496243,438.31L215.78947368421052,438.34000000000003L216.54135338345864,436.64000000000004L217.29323308270676,439.42L218.04511278195488,441.72L218.796992481203,440.87L219.54887218045113,441.39L220.30075187969925,442.26L221.05263157894737,442.05L221.80451127819546,442.05L222.5563909774436,447.12L223.30827067669173,449.52000000000004L224.06015037593986,450.2L224.81203007518798,449.12L225.56390977443607,445.53999999999996L226.31578947368422,443.66L227.06766917293234,443.66L227.81954887218046,442.62L228.57142857142856,442.62L229.32330827067668,442.03999999999996L230.07518796992483,442.09999999999997L230.82706766917295,442.26L231.57894736842104,441.3L232.33082706766916,437.31L233.08270676691728,430.06L233.83458646616543,427.33L234.58646616541353,427.65L235.33834586466165,425.91L236.09022556390977,428.33L236.8421052631579,431.21L237.593984962406,436L238.34586466165413,439.43L239.09774436090225,440.07L239.84962406015038,441.61L240.6015037593985,446.84000000000003L241.35338345864662,449.18L242.10526315789474,451.13000000000005L242.85714285714286,452.02L243.60902255639098,453.63L244.36090225563908,454.89000000000004L245.11278195488723,455.08L245.86466165413535,455.96999999999997L246.61654135338347,456.31L247.36842105263156,457.8L248.12030075187968,460.61999999999995L248.87218045112783,461.78999999999996L249.62406015037595,464.11L250.37593984962407,465.28000000000003L251.1278195488722,464.96L251.87969924812032,468.07L252.63157894736844,470.68L253.38345864661653,470.15000000000003L254.13533834586465,471.26L254.88721804511277,470.33000000000004L255.6390977443609,472.28L256.390977443609,473.65000000000003L257.1428571428571,473.86L257.89473684210526,474.28999999999996L258.6466165413534,475.46L259.3984962406015,477.08L260.15037593984965,478.82000000000005L260.90225563909775,478.10999999999996L261.65413533834584,478.57L262.406015037594,479.60999999999996L263.1578947368421,479.82000000000005L263.90977443609023,480.65999999999997L264.6616541353383,481.02L265.4135338345865,482.07L266.1654135338346,483.20000000000005L266.9172932330827,482.77L267.6691729323308,481.59000000000003L268.42105263157896,481.03000000000003L269.17293233082705,481.04999999999995L269.9248120300752,481.85L270.6766917293233,481.21999999999997L271.4285714285714,480.71999999999997L272.18045112781954,480.71999999999997L272.9323308270677,479.96L273.6842105263158,480.76000000000005L274.43609022556393,481.71999999999997L275.187969924812,481.86L275.9398496240602,481.71L276.69172932330827,482.41L277.44360902255636,482.96L278.1954887218045,482.82000000000005L278.9473684210526,482.5L279.69924812030075,481.53000000000003L280.4511278195489,481.26000000000005L281.203007518797,481L281.92355889724314,480.76000000000005L282.67543859649123,480.47L283.4273182957394,479.71000000000004L284.1791979949875,478.6L284.93107769423557,478.68L285.6829573934837,478.16L286.4348370927318,477.59000000000003L287.18671679197996,477.25L287.93859649122805,476.85L288.69047619047615,476.64L289.44235588972435,476.48L290.19423558897245,475.75L290.94611528822054,474.77000000000004L291.6979949874687,474.69L292.4498746867168,474.02L293.20175438596493,473.84999999999997L293.953634085213,473.42L294.7055137844611,472.77000000000004L295.45739348370927,473.06L296.20927318295736,473.45L296.9611528822055,473.45L297.71303258145366,474.63L298.46491228070175,474.46L299.2167919799499,474.3L299.968671679198,474.92L300.7205513784461,474.72999999999996L301.47243107769424,474.52L302.22431077694233,474.2L302.9761904761905,473.02L303.7280701754386,474.01L304.4799498746867,474.62L305.2318295739349,475.06L305.98370927318297,475.43L306.73558897243106,476.81L307.4874686716792,478.46L308.2393483709273,479.22999999999996L308.99122807017545,479.76000000000005L309.74310776942355,481.23L310.49498746867164,482.58L311.2468671679198,483.79L311.99874686716794,484.10999999999996L312.75062656641603,484.59999999999997L313.5025062656642,485.39L314.2543859649123,485.35L315.0062656641604,485.29L315.7581453634085,485.42L316.5100250626566,485.92999999999995L317.26190476190476,486.77L318.01378446115285,487.33L318.765664160401,488.03000000000003L319.51754385964915,488.27L320.26942355889724,489.33L321.0213032581454,489.81L321.7731829573935,490.42L322.5250626566416,491.07L323.27694235588973,491.42L324.0288220551378,491.47L324.780701754386,492.39L325.53258145363407,492.55L326.2844611528822,493.53999999999996L327.03634085213037,494.58000000000004L327.78822055137846,494.84L328.54010025062655,495.01L329.2919799498747,495.37L330.0438596491228,495.11L330.79573934837094,495.76L331.54761904761904,495.82L332.29949874686713,495.58000000000004L333.0513784461153,495.75L333.80325814536343,496.02000000000004L334.5551378446115,495.99L335.3070175438597,496.13L336.05889724310777,496.07L336.8107769423559,496.49L337.562656641604,496.65L338.3145363408521,497.15999999999997L339.06641604010025,497.45L339.81829573934834,497.45L340.5701754385965,497.71L341.32205513784464,498.24L342.07393483709274,498.03L342.8258145363409,498.32L343.577694235589,498.2L344.3295739348371,498.27L345.0814536340852,498.37L345.8333333333333,498.3L346.58521303258146,498.29L347.33709273182956,498.62L348.08897243107765,498.71999999999997L348.84085213032586,498.91L349.59273182957395,498.97L350.34461152882204,499.02000000000004L351.0964912280702,499.15999999999997L351.8483709273183,499.14L352.60025062656644,499.21999999999997L353.3521303258145,499.14L354.1040100250626,499.15999999999997L354.85588972431077,499.15L355.60776942355886,499.15999999999997L356.35964912280707,499.18L357.11152882205516,499.17L357.86340852130326,499.03999999999996L358.6152882205514,499.09999999999997L359.3671679197995,499.15999999999997L360.1190476190476,499.15999999999997L360.87092731829574,499.15999999999997L361.62280701754383,499.09L362.374686716792,499L363.1265664160401,499.03L363.8784461152882,498.97999999999996L364.6303258145364,498.97999999999996L365.38220551378447,498.97999999999996L366.13408521303256,498.97999999999996L366.8859649122807,499.03L367.6378446115288,498.95L368.38972431077696,498.91999999999996L369.14160401002505,498.87L369.89348370927314,498.87L370.6453634085213,498.87L371.39724310776944,498.87L372.1491228070176,498.37L372.9010025062657,498.21L373.6528822055138,498.03L374.4047619047619,497.91L375.15664160401,497.91L375.9085213032581,497.91L376.66040100250626,497.08000000000004L377.41228070175436,496.83L378.1641604010025,496.39L378.91604010025065,495.88L379.66791979949875,495.28L380.4197994987469,495.28L381.171679197995,495.28L381.9235588972431,494.19L382.67543859649123,493.77L383.4273182957393,493.51L384.1791979949875,493.01L384.93107769423557,492.35L385.68295739348366,492.35L386.43483709273187,492.35L387.18671679197996,491.45L387.93859649122805,490.79L388.6904761904762,490.17L389.4423558897243,489.59999999999997L390.19423558897245,489.45L390.94611528822054,489.45L391.69799498746863,489.45L392.4498746867168,488.29L393.2017543859649,488.11L393.9536340852131,487.18L394.7055137844612,486.86L395.45739348370927,486.53000000000003L396.2092731829574,486.53000000000003L396.9611528822055,486.53000000000003L397.7130325814536,485.71L398.46491228070175,485.45L399.21679197994985,485.65000000000003L399.968671679198,485.8L400.7205513784461,485.42L401.47243107769424,485.42L402.2243107769424,485.42L402.9761904761905,484.78L403.7280701754386,484.84L404.4799498746867,484.57L405.2318295739348,483.98L405.98370927318297,483.87L406.73558897243106,483.87L407.48746867167915,483.87L408.2393483709273,483.10999999999996L408.99122807017545,482.69L409.7431077694236,482.74L410.4949874686717,482.83L411.2468671679198,482.9L411.99874686716794,482.9L412.75062656641603,482.9L413.5025062656641,482.9L414.2543859649123,483.65999999999997L415.00626566416037,484.02L415.7581453634086,483.38L416.51002506265667,483.24L417.26190476190476,483.24L418.0137844611529,483.24L418.765664160401,483.48999999999995L419.5175438596491,482.92999999999995L420.26942355889724,481.12L421.02130325814534,481.64L421.7731829573935,481.38L422.5250626566416,481.38L423.27694235588973,481.38L424.0288220551379,481.37L424.780701754386,481.54999999999995L425.5325814536341,482.6L426.2844611528822,482.47L427.0363408521303,482.4L427.78822055137846,482.4L428.54010025062655,482.4L429.29197994987464,483.23L430.0438596491228,483.26000000000005L430.79573934837094,483.91L431.5476190476191,484.64000000000004L432.2994987468672,485.54999999999995L433.0513784461153,485.54999999999995L433.80325814536343,485.54999999999995L434.5551378446115,486.53000000000003L435.3070175438596,486.29L436.05889724310777,486.53999999999996L436.81077694235586,486.28L437.562656641604,486.01L438.31453634085216,486.01L439.06641604010025,486.01L439.8182957393484,486.01L440.5701754385965,486.27L441.32205513784464,486.23L442.07393483709274,486.03000000000003L442.82581453634083,485.61L443.577694235589,485.61L444.3295739348371,485.61L445.08145363408516,486.48999999999995L445.83333333333337,484.36L446.58521303258146,483.87L447.3370927318296,484.04999999999995L448.0889724310777,484.46L448.8408521303258,484.46L449.59273182957395,484.46L450.34461152882204,483.69L451.09649122807014,484.65999999999997L451.8483709273183,484.85L452.6002506265664,484.44L453.3521303258146,484.42L454.1040100250627,484.42L454.85588972431077,484.42L455.6077694235589,484.04999999999995L456.359649122807,484.27L457.11152882205516,484.47L457.86340852130326,484.14L458.61528822055135,483.65000000000003L459.3671679197995,483.65000000000003L460.1190476190476,483.65000000000003L460.90225563909775,482.25L461.6541353383459,481.83L462.406015037594,480.84L463.1578947368421,480.84L463.90977443609023,480.53000000000003L464.6616541353383,480.53000000000003L465.4135338345865,480.53000000000003L466.16541353383457,478.27L466.9172932330827,477.51L467.66917293233087,475.86L468.42105263157896,474.14L469.17293233082705,471.96L469.9248120300752,471.96L470.6766917293233,471.96L471.42857142857144,470.07L472.18045112781954,469.26L472.93233082706763,468.95L473.6842105263158,468.95L474.43609022556393,470.92L475.187969924812,470.92L475.9398496240602,470.92L476.69172932330827,473.41L477.4436090225564,471.97L478.1954887218045,468.53000000000003L478.9473684210526,464.84000000000003L479.69924812030075,458.90999999999997L480.45112781954884,458.90999999999997L481.203007518797,458.90999999999997L481.95488721804514,448.90000000000003L482.70676691729324,448.88L483.4586466165414,448.59L484.2105263157895,447.47999999999996L484.9624060150376,448.41999999999996L485.7142857142857,448.41999999999996L486.4661654135338,448.41999999999996L487.21804511278197,448.40000000000003L487.96992481203006,447.81L488.72180451127815,447.49L489.47368421052636,447.13000000000005L490.22556390977445,443.97999999999996L490.97744360902254,443.97999999999996L491.7293233082707,443.97999999999996L492.4812030075188,439.55L493.23308270676694,435.62999999999994L493.98496240601503,428.95L494.7368421052631,420.57L495.4887218045113,412.88000000000005L496.24060150375936,412.88000000000005L496.9924812030075,412.88000000000005L497.74436090225566,413.68L498.49624060150376,405.31L499.2481203007519,391.96999999999997L500,373.06" stroke="#d95f02" stroke-width="2"/></g><g class="mark-line role-mark layer_1_marks" role="graphics-object" aria-roledescription="line mark container"><path aria-label="date: Mar 2020; RNA copies per mL of wastewater, weekly avg (Northern MWRA region): 0" role="graphics-symbol" aria-roledescription="line mark" d="M3.7280701754385963,498.38461538461536L4.479949874686716,497.61538461538464L5.231829573934838,497.53846153846155L5.983709273182957,497.53846153846155L6.735588972431077,497.61538461538464L7.487468671679198,497.38461538461536L8.239348370927319,497.53846153846155L8.991228070175438,496.69230769230774L9.743107769423558,496.9230769230769L10.49498746867168,496.7692307692308L11.2468671679198,496.7692307692308L11.99874686716792,496.46153846153845L12.75062656641604,496.53846153846155L13.50250626566416,493.0769230769231L14.254385964912279,490.0769230769231L15.006265664160402,485.2307692307692L15.75814536340852,486L16.51002506265664,484.53846153846155L17.261904761904763,484.53846153846155L18.01378446115288,484.53846153846155L18.765664160401002,486.15384615384613L19.517543859649123,488.0769230769231L20.26942355889724,485.61538461538464L21.021303258145366,475.7692307692308L21.773182957393484,472.5384615384615L22.525062656641605,472.5384615384615L23.276942355889727,472.5384615384615L24.028822055137844,464.92307692307696L24.780701754385966,462.3846153846154L25.532581453634084,461.84615384615387L26.284461152882205,455.53846153846155L27.036340852130326,448.9230769230769L27.788220551378444,448.9230769230769L28.540100250626566,448.9230769230769L29.291979949874683,448.9230769230769L30.04385964912281,442.9230769230769L30.79573934837093,442.9230769230769L31.547619047619047,463.53846153846155L32.299498746867165,466.6923076923077L33.05137844611529,466.6923076923077L33.80325814536341,466.6923076923077L34.55513784461153,466.6923076923077L35.30701754385965,473.84615384615387L36.05889724310777,469.4615384615385L36.81077694235589,470.6923076923077L37.562656641604015,469.92307692307696L38.31453634085213,469.92307692307696L39.06641604010025,469.92307692307696L39.81829573934837,469.92307692307696L40.57017543859649,472.6923076923077L41.322055137844615,477.84615384615387L42.07393483709273,477.46153846153845L42.82581453634085,477.46153846153845L43.57769423558897,477.46153846153845L44.32957393483709,487.3076923076923L45.081453634085214,487.3076923076923L45.83333333333333,492.7692307692308L46.58521303258145,495.53846153846155L47.33709273182957,495.53846153846155L48.08897243107769,495.53846153846155L48.840852130325814,495.53846153846155L49.59273182957393,496.46153846153845L50.34461152882205,496.46153846153845L51.09649122807018,498.30769230769226M60.11904761904762,494L60.87092731829574,494.69230769230774L61.622807017543856,495.2307692307692L62.37468671679198,495L63.1265664160401,495.1538461538462L63.87844611528821,496.1538461538462L64.63032581453635,496.38461538461536L65.38220551378446,496.53846153846155L66.13408521303259,496.30769230769226L66.8859649122807,495.7692307692308L67.63784461152882,496.2307692307692L68.38972431077694,496.2307692307692L69.14160401002506,496.30769230769226L69.89348370927318,496.30769230769226L70.6453634085213,496.53846153846155L71.39724310776941,497L72.14912280701755,496.7692307692308L72.90100250626566,496.53846153846155L73.65288220551379,495.69230769230774L74.4047619047619,495.38461538461536L75.15664160401002,494.38461538461536L75.90852130325814,493.38461538461536L76.66040100250626,490.7692307692308L77.4122807017544,491.3076923076923L78.1641604010025,493.38461538461536L78.91604010025063,495.1538461538462L79.66791979949875,495.69230769230774L80.41979949874687,496.9230769230769L81.17167919799499,497.0769230769231L81.92355889724311,497.69230769230774L82.67543859649122,498.2307692307693L83.42731829573935,498.30769230769226L84.17919799498746,498.38461538461536L84.9310776942356,498.69230769230774L85.6829573934837,498.7692307692307L86.43483709273183,498.8461538461538L87.18671679197995,498.8461538461538L87.93859649122807,498.8461538461538L88.69047619047619,498.69230769230774L89.44235588972431,498.53846153846155L90.19423558897243,498.2307692307693L90.94611528822055,498.2307692307693L91.69799498746866,498.38461538461536L92.4498746867168,498.1538461538462L93.2017543859649,498L93.95363408521304,498L94.70551378446116,498.0769230769231L95.45739348370927,498.1538461538462L96.2092731829574,498L96.96115288220551,497.61538461538464L97.71303258145365,497.61538461538464L98.46491228070175,497.69230769230774L99.21679197994987,497.69230769230774L99.968671679198,497.61538461538464L100.72055137844612,497.53846153846155L101.47243107769424,497.53846153846155L102.22431077694236,497.9230769230769L102.97619047619047,498L103.7280701754386,498.1538461538462L104.47994987468671,498.2307692307693L105.23182957393485,498.2307692307693L105.98370927318295,498.1538461538462L106.73558897243107,498L107.4874686716792,497.7692307692307L108.23934837092732,497.61538461538464L108.99122807017544,497.38461538461536L109.74310776942356,497.46153846153845L110.49498746867167,497.30769230769226L111.2468671679198,497.0769230769231L111.99874686716792,497.1538461538462L112.75062656641605,497L113.50250626566417,495.46153846153845L114.25438596491227,495.69230769230774L115.00626566416041,495L116.51002506265665,495.9230769230769L117.26190476190476,495.9230769230769L118.01378446115288,495.9230769230769L118.765664160401,496.30769230769226L119.51754385964912,496.30769230769226L120.26942355889724,496L121.02130325814537,495.9230769230769L121.77318295739347,495.7692307692308L122.52506265664161,495.7692307692308L123.27694235588972,495.7692307692308L124.02882205513785,496.30769230769226L124.78070175438596,496.30769230769226L125.53258145363408,495.69230769230774L126.28446115288219,495.69230769230774L127.03634085213034,495.30769230769226L127.78822055137844,495.30769230769226L128.54010025062655,495.30769230769226L129.29197994987467,495.53846153846155L130.0438596491228,495.53846153846155L130.79573934837094,496.30769230769226L131.54761904761907,496.30769230769226L132.29949874686716,496.30769230769226L133.05137844611528,496.30769230769226L133.8032581453634,496.30769230769226L134.55513784461155,495.69230769230774L135.30701754385964,495.69230769230774L136.05889724310777,493.7692307692308L136.8107769423559,493.7692307692308L137.562656641604,491.7692307692308L138.31453634085213,491.7692307692308L139.06641604010025,491.7692307692308L139.81829573934837,491.9230769230769L140.5701754385965,491.9230769230769L141.3220551378446,494.46153846153845L142.07393483709274,494.69230769230774L142.82581453634086,496L143.57769423558898,496L144.32957393483707,496.0769230769231L145.0814536340852,496.2307692307692L145.83333333333334,496.30769230769226L146.58521303258146,496.2307692307692L147.33709273182959,496.30769230769226L148.08897243107768,496.0769230769231L148.8408521303258,496.30769230769226L149.59273182957395,496.46153846153845L150.34461152882207,496.8461538461538L151.09649122807016,496.8461538461538L151.84837092731829,496.9230769230769L152.6002506265664,497.1538461538462L153.35213032581456,497.46153846153845L154.10401002506265,497.38461538461536L154.85588972431077,497.38461538461536L155.6077694235589,497.0769230769231L156.359649122807,497.1538461538462L157.11152882205513,497.61538461538464L157.86340852130326,497.61538461538464L158.61528822055138,497.61538461538464L159.3671679197995,497.61538461538464L160.1190476190476,497.61538461538464L160.87092731829574,497.69230769230774L161.62280701754386,497.69230769230774L162.37468671679198,496.53846153846155L163.1265664160401,496.53846153846155L163.87844611528823,495.9230769230769L164.63032581453635,495.9230769230769L165.38220551378447,495.9230769230769L166.1340852130326,495.46153846153845L166.88596491228068,495.46153846153845L167.63784461152883,495.46153846153845L168.38972431077696,495.46153846153845L169.14160401002508,494.46153846153845L169.89348370927317,494.46153846153845L170.6453634085213,492.38461538461536L171.39724310776944,490.61538461538464L172.14912280701756,490.53846153846155L172.90100250626566,489.9230769230769L173.65288220551378,489.9230769230769L174.4047619047619,489.9230769230769L175.15664160401005,489.8461538461538L175.90852130325814,490.9230769230769L177.41228070175438,490.8461538461538L178.1641604010025,489.9230769230769L178.91604010025063,490.3076923076923L179.66791979949875,489.38461538461536L180.41979949874687,489.2307692307692L181.171679197995,489.0769230769231L181.95488721804512,488.38461538461536L182.70676691729324,486.7692307692308L183.45864661654136,486.84615384615387L184.21052631578945,484.15384615384613L184.9624060150376,484.0769230769231L185.71428571428572,483.15384615384613L186.46616541353384,481L187.21804511278194,480.46153846153845L187.96992481203006,480.2307692307692L188.7218045112782,477.9230769230769L189.47368421052633,478.3076923076923L190.22556390977445,477.07692307692304L190.97744360902254,475.92307692307696L191.72932330827066,476.3846153846154L192.48120300751881,475.2307692307692L193.23308270676694,474.53846153846155L193.98496240601503,475L194.73684210526315,474.3076923076923L195.48872180451127,473.53846153846155L196.24060150375942,472.6923076923077L196.99248120300751,471L197.74436090225564,471.6153846153846L198.49624060150376,470.6923076923077L199.24812030075188,469.6153846153846L200,468.4615384615385L200.75187969924812,466.53846153846155L201.50375939849624,464.84615384615387L202.25563909774436,463.92307692307696L203.00751879699246,458.7692307692308L203.7593984962406,455.6923076923077L204.51127819548873,451.53846153846155L205.26315789473685,447.3076923076923L206.01503759398494,440.0769230769231L206.76691729323306,435.0769230769231L207.5187969924812,428.38461538461536L208.27067669172934,422.0769230769231L209.02255639097746,424L209.77443609022555,427.30769230769226L210.52631578947367,428.2307692307692L211.27819548872182,430.0769230769231L212.03007518796994,429.38461538461536L212.78195488721803,426.61538461538464L213.53383458646616,426.84615384615387L214.28571428571428,439.0769230769231L215.03759398496243,436.0769230769231L215.78947368421052,433.1538461538462L216.54135338345864,434L217.29323308270676,432.69230769230774L218.04511278195488,436.53846153846155L218.796992481203,440.38461538461536L219.54887218045113,425.0769230769231L220.30075187969925,425.53846153846155L221.05263157894737,426.7692307692308L221.80451127819546,428.30769230769226L222.5563909774436,435.69230769230774L223.30827067669173,432.84615384615387L224.06015037593986,426.61538461538464L224.81203007518798,429.1538461538462L225.56390977443607,423.46153846153845L226.31578947368422,425.7692307692308L227.06766917293234,432.38461538461536L227.81954887218046,436.2307692307692L228.57142857142856,445.61538461538464L229.32330827067668,452.6923076923077L230.07518796992483,451.38461538461536L230.82706766917295,453.46153846153845L231.57894736842104,451.53846153846155L232.33082706766916,443.8461538461538L233.08270676691728,431.9230769230769L233.83458646616543,420.46153846153845L234.58646616541353,413.07692307692304L235.33834586466165,413.38461538461536L236.09022556390977,414.3076923076923L236.8421052631579,415.53846153846155L238.34586466165413,425.9230769230769L239.09774436090225,433.0769230769231L239.84962406015038,437.8461538461538L240.6015037593985,437.38461538461536L241.35338345864662,444.53846153846155L242.10526315789474,448.15384615384613L242.85714285714286,451.61538461538464L243.60902255639098,449.7692307692308L244.36090225563908,448.8461538461538L245.11278195488723,448.53846153846155L245.86466165413535,456.61538461538464L246.61654135338347,457.7692307692308L247.36842105263156,459.7692307692308L248.12030075187968,463.84615384615387L248.87218045112783,466.6153846153846L249.62406015037595,469L250.37593984962407,471.3846153846154L251.1278195488722,471.6153846153846L251.87969924812032,472.4615384615385L252.63157894736844,474.4615384615385L253.38345864661653,474L254.13533834586465,474.4615384615385L254.88721804511277,475.53846153846155L255.6390977443609,475.07692307692304L256.390977443609,474.6153846153846L257.1428571428571,475.3846153846154L257.89473684210526,473.84615384615387L258.6466165413534,473.92307692307696L259.3984962406015,475.4615384615385L260.15037593984965,475.6153846153846L260.90225563909775,478.7692307692308L261.65413533834584,480.2307692307692L262.406015037594,480.15384615384613L263.1578947368421,479.9230769230769L263.90977443609023,478.53846153846155L264.6616541353383,479.84615384615387L265.4135338345865,479.6153846153846L266.1654135338346,476.7692307692308L266.9172932330827,477.3076923076923L267.6691729323308,476.9230769230769L268.42105263157896,479.3076923076923L269.17293233082705,483.3846153846154L269.9248120300752,482.6923076923077L270.6766917293233,483.61538461538464L271.4285714285714,484.53846153846155L272.18045112781954,483.9230769230769L272.9323308270677,483.7692307692308L273.6842105263158,482.46153846153845L274.43609022556393,480.2307692307692L275.187969924812,480.9230769230769L275.9398496240602,481.15384615384613L276.69172932330827,480.84615384615387L277.44360902255636,480.84615384615387L278.1954887218045,481.6153846153846L278.9473684210526,483.0769230769231L279.69924812030075,482.53846153846155L280.4511278195489,480.84615384615387L281.203007518797,480.2307692307692L281.92355889724314,480L282.67543859649123,480L283.4273182957394,479.3076923076923L284.1791979949875,476.7692307692308L284.93107769423557,477.84615384615387L285.6829573934837,477.6923076923077L286.4348370927318,477.84615384615387L287.18671679197996,478.0769230769231L287.93859649122805,477.2307692307692L288.69047619047615,477.46153846153845L289.44235588972435,478.84615384615387L290.19423558897245,479.46153846153845L290.94611528822054,480.0769230769231L292.4498746867168,480.2307692307692L293.20175438596493,481.0769230769231L293.953634085213,483.2307692307692L294.7055137844611,483.53846153846155L295.45739348370927,483.15384615384613L296.20927318295736,484.46153846153845L296.9611528822055,483.0769230769231L297.71303258145366,483.15384615384613L298.46491228070175,482.9230769230769L299.2167919799499,481L299.968671679198,480.84615384615387L300.7205513784461,480.3076923076923L301.47243107769424,478.3076923076923L302.22431077694233,479.2307692307692L302.9761904761905,478.6153846153846L303.7280701754386,479.53846153846155L304.4799498746867,479.3076923076923L305.2318295739349,479.46153846153845L305.98370927318297,480.9230769230769L306.73558897243106,481.53846153846155L307.4874686716792,482L308.2393483709273,483.53846153846155L308.99122807017545,484.0769230769231L309.74310776942355,485.0769230769231L310.49498746867164,486.61538461538464L311.2468671679198,488.0769230769231L311.99874686716794,489.3076923076923L312.75062656641603,489.7692307692308L313.5025062656642,490L314.2543859649123,490.3076923076923L315.0062656641604,490.9230769230769L315.7581453634085,490.61538461538464L316.5100250626566,490.6923076923077L317.26190476190476,491L318.01378446115285,492.0769230769231L318.765664160401,492.9230769230769L319.51754385964915,493.0769230769231L320.26942355889724,493.30769230769226L321.0213032581454,493.61538461538464L322.5250626566416,493.9230769230769L323.27694235588973,493.7692307692308L324.0288220551378,493.8461538461538L324.780701754386,494.9230769230769L325.53258145363407,495.1538461538462L326.2844611528822,495.46153846153845L327.03634085213037,495.61538461538464L327.78822055137846,495.8461538461538L328.54010025062655,496.30769230769226L329.2919799498747,496.53846153846155L330.0438596491228,496.46153846153845L330.79573934837094,496.7692307692308L331.54761904761904,496.7692307692308L332.29949874686713,496.8461538461538L333.0513784461153,496.9230769230769L333.80325814536343,497.2307692307692L334.5551378446115,497.2307692307692L335.3070175438597,497.2307692307692L336.05889724310777,497.38461538461536L336.8107769423559,497.7692307692307L337.562656641604,497.9230769230769L338.3145363408521,498.30769230769226L339.06641604010025,498.2307692307693L339.81829573934834,498.46153846153845L340.5701754385965,498.46153846153845L341.32205513784464,498.38461538461536L342.07393483709274,498.38461538461536L342.8258145363409,498.46153846153845L343.577694235589,498.1538461538462L344.3295739348371,498.0769230769231L345.0814536340852,497.9230769230769L345.8333333333333,498.1538461538462L346.58521303258146,498.30769230769226L347.33709273182956,498.2307692307693L348.08897243107765,498.0769230769231L348.84085213032586,498.0769230769231L349.59273182957395,498.1538461538462L350.34461152882204,498.38461538461536L351.0964912280702,498.46153846153845L351.8483709273183,498.53846153846155L352.60025062656644,498.61538461538464L353.3521303258145,498.8461538461538L354.1040100250626,499L354.85588972431077,499L355.60776942355886,498.9230769230769L356.35964912280707,498.8461538461538L357.11152882205516,498.7692307692307L357.86340852130326,498.69230769230774L358.6152882205514,498.53846153846155L359.3671679197995,498.46153846153845L360.1190476190476,498.46153846153845L360.87092731829574,498.2307692307693L361.62280701754383,497.9230769230769L363.1265664160401,498L363.8784461152882,497.9230769230769L364.6303258145364,497.61538461538464L365.38220551378447,497L366.13408521303256,497.2307692307692L366.8859649122807,497.53846153846155L367.6378446115288,497.30769230769226L368.38972431077696,496.9230769230769L369.14160401002505,496.61538461538464L369.89348370927314,496.38461538461536L370.6453634085213,496.46153846153845L371.39724310776944,495.8461538461538L372.1491228070176,497.0769230769231L372.9010025062657,496.61538461538464L373.6528822055138,496.53846153846155L374.4047619047619,496.53846153846155L375.15664160401,496.61538461538464L375.9085213032581,496.2307692307692L376.66040100250626,495.8461538461538L377.41228070175436,492.7692307692308L378.1641604010025,492.2307692307692L378.91604010025065,491.2307692307692L379.66791979949875,490L380.4197994987469,488.53846153846155L381.171679197995,487.2307692307692L381.9235588972431,486.3076923076923L382.67543859649123,485.61538461538464L383.4273182957393,484.46153846153845L384.1791979949875,483.61538461538464L384.93107769423557,483.84615384615387L385.68295739348366,484.0769230769231L386.43483709273187,484.3076923076923L387.18671679197996,484.7692307692308L387.93859649122805,484.9230769230769L388.6904761904762,486.2307692307692L389.4423558897243,486.6923076923077L390.19423558897245,486.6923076923077L390.94611528822054,483.2307692307692L391.69799498746863,480.46153846153845L392.4498746867168,476.84615384615387L393.2017543859649,474.6153846153846L393.9536340852131,472.6923076923077L394.7055137844612,466.3846153846154L395.45739348370927,462.84615384615387L396.2092731829574,465.92307692307696L396.9611528822055,469.4615384615385L397.7130325814536,472.6153846153846L398.46491228070175,472.5384615384615L399.21679197994985,472.6923076923077L399.968671679198,476.6923076923077L400.7205513784461,477.2307692307692L401.47243107769424,475L402.2243107769424,474.84615384615387L402.9761904761905,475.84615384615387L403.7280701754386,476.3076923076923L404.4799498746867,474.4615384615385L405.2318295739348,472.4615384615385L405.98370927318297,471.15384615384613L406.73558897243106,473.3076923076923L407.48746867167915,473.3846153846154L408.2393483709273,472.4615384615385L408.99122807017545,471.7692307692308L409.7431077694236,475L410.4949874686717,477.07692307692304L411.2468671679198,478.0769230769231L411.99874686716794,479.3846153846154L412.75062656641603,480.0769230769231L413.5025062656641,480.46153846153845L414.2543859649123,481.6923076923077L415.00626566416037,481.6153846153846L415.7581453634086,482.0769230769231L416.51002506265667,485.7692307692308L417.26190476190476,486.46153846153845L418.0137844611529,486.61538461538464L418.765664160401,488L419.5175438596491,485.9230769230769L420.26942355889724,484.53846153846155L421.02130325814534,481.9230769230769L421.7731829573935,475.92307692307696L422.5250626566416,471.7692307692308L424.0288220551379,465.3076923076923L424.780701754386,469.7692307692308L425.5325814536341,472L426.2844611528822,475.07692307692304L427.0363408521303,478.3076923076923L427.78822055137846,479L428.54010025062655,480.6923076923077L429.29197994987464,480.7692307692308L430.0438596491228,480.6153846153846L430.79573934837094,479.6923076923077L431.5476190476191,477.2307692307692L432.2994987468672,475.3076923076923L433.0513784461153,476L433.80325814536343,474L434.5551378446115,473.7692307692308L435.3070175438596,472.5384615384615L436.05889724310777,474L436.81077694235586,476.15384615384613L437.562656641604,475.4615384615385L438.31453634085216,476.07692307692304L439.06641604010025,476.07692307692304L439.8182957393484,475.84615384615387L440.5701754385965,477.6923076923077L441.32205513784464,477.6153846153846L442.07393483709274,478.3076923076923L442.82581453634083,479.9230769230769L443.577694235589,481.3076923076923L444.3295739348371,483.9230769230769L445.08145363408516,485.61538461538464L445.83333333333337,485.84615384615387L446.58521303258146,484.9230769230769L447.3370927318296,483.7692307692308L448.0889724310777,482.9230769230769L448.8408521303258,480.6923076923077L449.59273182957395,476.6153846153846L450.34461152882204,474.4615384615385L451.09649122807014,473.6153846153846L451.8483709273183,473.3846153846154L452.6002506265664,472.3846153846154L453.3521303258146,470.4615384615385L454.1040100250627,473.3076923076923L454.85588972431077,478.53846153846155L455.6077694235589,478L456.359649122807,476.15384615384613L457.11152882205516,474.3076923076923L457.86340852130326,473.6923076923077L458.61528822055135,474.07692307692304L459.3671679197995,472.3076923076923L460.1190476190476,468.07692307692304L460.90225563909775,468.5384615384615L461.6541353383459,470.3076923076923L462.406015037594,470.15384615384613L463.1578947368421,472.6923076923077L463.90977443609023,472.4615384615385L464.6616541353383,469.3076923076923L465.4135338345865,464.92307692307696L466.16541353383457,459.6153846153846L466.9172932330827,457.15384615384613L467.66917293233087,454.7692307692308L468.42105263157896,447L469.17293233082705,449.7692307692308L469.9248120300752,451.7692307692308L470.6766917293233,452.46153846153845L471.42857142857144,456.6923076923077L472.18045112781954,453.15384615384613L472.93233082706763,452.3076923076923L473.6842105263158,451.9230769230769L474.43609022556393,451.53846153846155L475.187969924812,447.3076923076923L475.9398496240602,445.2307692307692L476.69172932330827,437.9230769230769L477.4436090225564,433.53846153846155L478.1954887218045,428.53846153846155L478.9473684210526,426.1538461538462L479.69924812030075,417.15384615384613L480.45112781954884,414.3076923076923L481.203007518797,404.6153846153846L481.95488721804514,404.3076923076923L482.70676691729324,405.3846153846154L483.4586466165414,409.2307692307692L484.9624060150376,404.84615384615387L485.7142857142857,403.3846153846154L486.4661654135338,411.3846153846154L487.21804511278197,400.15384615384613L487.96992481203006,405.3846153846154L488.72180451127815,404.3846153846154L489.47368421052636,397.84615384615387L490.22556390977445,387.53846153846155L490.97744360902254,382L491.7293233082707,369.46153846153845L492.4812030075188,370.53846153846155L493.23308270676694,350.3846153846154L493.98496240601503,336.2307692307692L494.7368421052631,314.53846153846155L495.4887218045113,292.6153846153846L496.24060150375936,254.61538461538458L496.9924812030075,225.99999999999997L497.74436090225566,168.6153846153846L498.49624060150376,84.69230769230768L499.2481203007519,13.69230769230767" stroke="#1b9e77" stroke-width="2"/></g></g><path class="foreground" aria-hidden="true" d="" display="none"/></g></g></g></svg>